<mxfile host="Electron" modified="2024-01-05T14:10:20.752Z" agent="Mozilla/5.0 (Macintosh; Intel Mac OS X 10_15_7) AppleWebKit/537.36 (KHTML, like Gecko) draw.io/21.6.5 Chrome/114.0.5735.243 Electron/25.3.1 Safari/537.36" etag="H3jp20RM8uYzyMDGAcod" version="21.6.5" type="device">
  <diagram name="Page-1" id="bExx7wGsUh9tUVkABb7P">
    <mxGraphModel dx="830" dy="486" grid="0" gridSize="10" guides="1" tooltips="1" connect="1" arrows="1" fold="1" page="1" pageScale="1" pageWidth="850" pageHeight="1100" math="0" shadow="0">
      <root>
        <mxCell id="0" />
        <mxCell id="1" parent="0" />
        <mxCell id="BbBG9lAdSmbuCI8SlXn7-23" value="" style="rounded=0;whiteSpace=wrap;html=1;dashed=1;" vertex="1" parent="1">
          <mxGeometry x="120" y="6820" width="400" height="290" as="geometry" />
        </mxCell>
        <mxCell id="WBLpp9h8ud4ae9By1l-Y-78" value="" style="rounded=1;whiteSpace=wrap;html=1;dashed=1;" parent="1" vertex="1">
          <mxGeometry x="500" y="5719" width="60" height="471" as="geometry" />
        </mxCell>
        <mxCell id="YGJ72AznllFPjdNBUUNP-90" style="edgeStyle=orthogonalEdgeStyle;rounded=0;orthogonalLoop=1;jettySize=auto;html=1;exitX=0.5;exitY=1;exitDx=0;exitDy=0;" parent="1" source="YGJ72AznllFPjdNBUUNP-88" target="YGJ72AznllFPjdNBUUNP-59" edge="1">
          <mxGeometry relative="1" as="geometry" />
        </mxCell>
        <mxCell id="S4FHqJlfXJ-YBWW90FeC-46" value="" style="rounded=1;whiteSpace=wrap;html=1;dashed=1;" parent="1" vertex="1">
          <mxGeometry x="120" y="280" width="400" height="360" as="geometry" />
        </mxCell>
        <mxCell id="S4FHqJlfXJ-YBWW90FeC-2" value="" style="rounded=1;whiteSpace=wrap;html=1;fillColor=#d5e8d4;strokeColor=#82b366;" parent="1" vertex="1">
          <mxGeometry x="160" y="320" width="80" height="40" as="geometry" />
        </mxCell>
        <mxCell id="S4FHqJlfXJ-YBWW90FeC-3" value="AXI&lt;br&gt;Interconnect" style="rounded=0;whiteSpace=wrap;html=1;" parent="1" vertex="1">
          <mxGeometry x="640" y="280" width="120" height="360" as="geometry" />
        </mxCell>
        <mxCell id="S4FHqJlfXJ-YBWW90FeC-6" value="AR" style="rounded=0;whiteSpace=wrap;html=1;fillColor=#fff2cc;strokeColor=#d6b656;" parent="1" vertex="1">
          <mxGeometry x="400" y="400" width="80" height="40" as="geometry" />
        </mxCell>
        <mxCell id="S4FHqJlfXJ-YBWW90FeC-12" value="R" style="rounded=0;whiteSpace=wrap;html=1;fillColor=#fff2cc;strokeColor=#d6b656;" parent="1" vertex="1">
          <mxGeometry x="400" y="440" width="80" height="40" as="geometry" />
        </mxCell>
        <mxCell id="S4FHqJlfXJ-YBWW90FeC-13" value="B" style="rounded=0;whiteSpace=wrap;html=1;fillColor=#fff2cc;strokeColor=#d6b656;" parent="1" vertex="1">
          <mxGeometry x="400" y="480" width="80" height="40" as="geometry" />
        </mxCell>
        <mxCell id="S4FHqJlfXJ-YBWW90FeC-14" value="AW" style="rounded=0;whiteSpace=wrap;html=1;fillColor=#fff2cc;strokeColor=#d6b656;" parent="1" vertex="1">
          <mxGeometry x="400" y="520" width="80" height="40" as="geometry" />
        </mxCell>
        <mxCell id="S4FHqJlfXJ-YBWW90FeC-15" value="W" style="rounded=0;whiteSpace=wrap;html=1;fillColor=#fff2cc;strokeColor=#d6b656;" parent="1" vertex="1">
          <mxGeometry x="400" y="560" width="80" height="40" as="geometry" />
        </mxCell>
        <mxCell id="S4FHqJlfXJ-YBWW90FeC-18" style="edgeStyle=orthogonalEdgeStyle;rounded=0;orthogonalLoop=1;jettySize=auto;html=1;exitX=1;exitY=0.25;exitDx=0;exitDy=0;entryX=0;entryY=0.25;entryDx=0;entryDy=0;" parent="1" source="S4FHqJlfXJ-YBWW90FeC-16" target="S4FHqJlfXJ-YBWW90FeC-17" edge="1">
          <mxGeometry relative="1" as="geometry" />
        </mxCell>
        <mxCell id="S4FHqJlfXJ-YBWW90FeC-19" value="address" style="edgeLabel;html=1;align=center;verticalAlign=middle;resizable=0;points=[];" parent="S4FHqJlfXJ-YBWW90FeC-18" vertex="1" connectable="0">
          <mxGeometry x="-0.1259" relative="1" as="geometry">
            <mxPoint as="offset" />
          </mxGeometry>
        </mxCell>
        <mxCell id="S4FHqJlfXJ-YBWW90FeC-20" style="edgeStyle=orthogonalEdgeStyle;rounded=0;orthogonalLoop=1;jettySize=auto;html=1;exitX=1;exitY=0.5;exitDx=0;exitDy=0;entryX=0;entryY=0.5;entryDx=0;entryDy=0;" parent="1" source="S4FHqJlfXJ-YBWW90FeC-16" target="S4FHqJlfXJ-YBWW90FeC-17" edge="1">
          <mxGeometry relative="1" as="geometry" />
        </mxCell>
        <mxCell id="S4FHqJlfXJ-YBWW90FeC-21" value="wdata" style="edgeLabel;html=1;align=center;verticalAlign=middle;resizable=0;points=[];" parent="S4FHqJlfXJ-YBWW90FeC-20" vertex="1" connectable="0">
          <mxGeometry x="-0.1753" relative="1" as="geometry">
            <mxPoint as="offset" />
          </mxGeometry>
        </mxCell>
        <mxCell id="S4FHqJlfXJ-YBWW90FeC-22" style="edgeStyle=orthogonalEdgeStyle;rounded=0;orthogonalLoop=1;jettySize=auto;html=1;exitX=1;exitY=0.75;exitDx=0;exitDy=0;entryX=0;entryY=0.75;entryDx=0;entryDy=0;" parent="1" source="S4FHqJlfXJ-YBWW90FeC-16" target="S4FHqJlfXJ-YBWW90FeC-17" edge="1">
          <mxGeometry relative="1" as="geometry" />
        </mxCell>
        <mxCell id="S4FHqJlfXJ-YBWW90FeC-23" value="read/write" style="edgeLabel;html=1;align=center;verticalAlign=middle;resizable=0;points=[];" parent="S4FHqJlfXJ-YBWW90FeC-22" vertex="1" connectable="0">
          <mxGeometry x="-0.1877" y="1" relative="1" as="geometry">
            <mxPoint as="offset" />
          </mxGeometry>
        </mxCell>
        <mxCell id="S4FHqJlfXJ-YBWW90FeC-16" value="Core&lt;br&gt;&lt;br&gt;MEM&lt;br&gt;Stage" style="rounded=1;whiteSpace=wrap;html=1;fillColor=#e1d5e7;strokeColor=#9673a6;" parent="1" vertex="1">
          <mxGeometry x="160" y="80" width="80" height="160" as="geometry" />
        </mxCell>
        <mxCell id="S4FHqJlfXJ-YBWW90FeC-24" style="edgeStyle=orthogonalEdgeStyle;rounded=0;orthogonalLoop=1;jettySize=auto;html=1;exitX=0;exitY=1;exitDx=0;exitDy=0;entryX=1;entryY=1;entryDx=0;entryDy=0;" parent="1" source="S4FHqJlfXJ-YBWW90FeC-17" target="S4FHqJlfXJ-YBWW90FeC-16" edge="1">
          <mxGeometry relative="1" as="geometry">
            <Array as="points">
              <mxPoint x="300" y="240" />
              <mxPoint x="300" y="240" />
            </Array>
          </mxGeometry>
        </mxCell>
        <mxCell id="S4FHqJlfXJ-YBWW90FeC-25" value="rdata" style="edgeLabel;html=1;align=center;verticalAlign=middle;resizable=0;points=[];" parent="S4FHqJlfXJ-YBWW90FeC-24" vertex="1" connectable="0">
          <mxGeometry x="0.1877" relative="1" as="geometry">
            <mxPoint as="offset" />
          </mxGeometry>
        </mxCell>
        <mxCell id="S4FHqJlfXJ-YBWW90FeC-26" style="edgeStyle=orthogonalEdgeStyle;rounded=0;orthogonalLoop=1;jettySize=auto;html=1;exitX=0;exitY=0;exitDx=0;exitDy=0;entryX=1;entryY=0;entryDx=0;entryDy=0;" parent="1" source="S4FHqJlfXJ-YBWW90FeC-17" target="S4FHqJlfXJ-YBWW90FeC-16" edge="1">
          <mxGeometry relative="1" as="geometry">
            <Array as="points">
              <mxPoint x="300" y="80" />
              <mxPoint x="300" y="80" />
            </Array>
          </mxGeometry>
        </mxCell>
        <mxCell id="S4FHqJlfXJ-YBWW90FeC-27" value="stall, error" style="edgeLabel;html=1;align=center;verticalAlign=middle;resizable=0;points=[];" parent="S4FHqJlfXJ-YBWW90FeC-26" vertex="1" connectable="0">
          <mxGeometry x="0.0107" relative="1" as="geometry">
            <mxPoint as="offset" />
          </mxGeometry>
        </mxCell>
        <mxCell id="S4FHqJlfXJ-YBWW90FeC-17" value="AXI&lt;br&gt;Master" style="rounded=1;whiteSpace=wrap;html=1;fillColor=#dae8fc;strokeColor=#6c8ebf;" parent="1" vertex="1">
          <mxGeometry x="360" y="80" width="80" height="160" as="geometry" />
        </mxCell>
        <mxCell id="S4FHqJlfXJ-YBWW90FeC-28" value="AXI&lt;br&gt;Interconnect" style="rounded=1;whiteSpace=wrap;html=1;fillColor=#d5e8d4;strokeColor=#82b366;" parent="1" vertex="1">
          <mxGeometry x="520" y="80" width="120" height="160" as="geometry" />
        </mxCell>
        <mxCell id="S4FHqJlfXJ-YBWW90FeC-29" value="ACC 0" style="rounded=1;whiteSpace=wrap;html=1;fillColor=#ffe6cc;strokeColor=#d79b00;" parent="1" vertex="1">
          <mxGeometry x="720" y="80" width="80" height="40" as="geometry" />
        </mxCell>
        <mxCell id="S4FHqJlfXJ-YBWW90FeC-30" value="ACC 2" style="rounded=1;whiteSpace=wrap;html=1;fillColor=#ffe6cc;strokeColor=#d79b00;" parent="1" vertex="1">
          <mxGeometry x="720" y="200" width="80" height="40" as="geometry" />
        </mxCell>
        <mxCell id="S4FHqJlfXJ-YBWW90FeC-31" value="ACC 1" style="rounded=1;whiteSpace=wrap;html=1;fillColor=#ffe6cc;strokeColor=#d79b00;" parent="1" vertex="1">
          <mxGeometry x="720" y="140" width="80" height="40" as="geometry" />
        </mxCell>
        <mxCell id="S4FHqJlfXJ-YBWW90FeC-32" value="" style="shape=flexArrow;endArrow=classic;startArrow=classic;html=1;rounded=0;fillColor=#f5f5f5;strokeColor=#666666;" parent="1" edge="1">
          <mxGeometry width="100" height="100" relative="1" as="geometry">
            <mxPoint x="450" y="159.88" as="sourcePoint" />
            <mxPoint x="510" y="159.88" as="targetPoint" />
          </mxGeometry>
        </mxCell>
        <mxCell id="S4FHqJlfXJ-YBWW90FeC-33" value="" style="shape=flexArrow;endArrow=classic;startArrow=classic;html=1;rounded=0;fillColor=#f5f5f5;strokeColor=#666666;" parent="1" edge="1">
          <mxGeometry width="100" height="100" relative="1" as="geometry">
            <mxPoint x="650" y="159.88" as="sourcePoint" />
            <mxPoint x="710" y="159.88" as="targetPoint" />
          </mxGeometry>
        </mxCell>
        <mxCell id="S4FHqJlfXJ-YBWW90FeC-34" value="" style="shape=flexArrow;endArrow=classic;startArrow=classic;html=1;rounded=0;fillColor=#f5f5f5;strokeColor=#666666;" parent="1" edge="1">
          <mxGeometry width="100" height="100" relative="1" as="geometry">
            <mxPoint x="650" y="219.88" as="sourcePoint" />
            <mxPoint x="710" y="219.88" as="targetPoint" />
          </mxGeometry>
        </mxCell>
        <mxCell id="S4FHqJlfXJ-YBWW90FeC-35" value="" style="shape=flexArrow;endArrow=classic;startArrow=classic;html=1;rounded=0;fillColor=#f5f5f5;strokeColor=#666666;" parent="1" edge="1">
          <mxGeometry width="100" height="100" relative="1" as="geometry">
            <mxPoint x="650" y="99.88" as="sourcePoint" />
            <mxPoint x="710" y="99.88" as="targetPoint" />
          </mxGeometry>
        </mxCell>
        <mxCell id="S4FHqJlfXJ-YBWW90FeC-39" value="" style="rounded=1;whiteSpace=wrap;html=1;fillColor=#d5e8d4;strokeColor=#82b366;" parent="1" vertex="1">
          <mxGeometry x="170" y="310" width="80" height="40" as="geometry" />
        </mxCell>
        <mxCell id="S4FHqJlfXJ-YBWW90FeC-38" value="Write&lt;br&gt;Beat&lt;br&gt;Counter" style="rounded=1;whiteSpace=wrap;html=1;fillColor=#d5e8d4;strokeColor=#82b366;" parent="1" vertex="1">
          <mxGeometry x="180" y="300" width="80" height="40" as="geometry" />
        </mxCell>
        <mxCell id="S4FHqJlfXJ-YBWW90FeC-40" value="Burst&lt;br&gt;Counter" style="rounded=1;whiteSpace=wrap;html=1;fillColor=#dae8fc;strokeColor=#6c8ebf;" parent="1" vertex="1">
          <mxGeometry x="400" y="300" width="80" height="40" as="geometry" />
        </mxCell>
        <mxCell id="S4FHqJlfXJ-YBWW90FeC-43" value="Read&lt;br&gt;Beat&lt;br&gt;Counter" style="rounded=1;whiteSpace=wrap;html=1;fillColor=#d5e8d4;strokeColor=#82b366;" parent="1" vertex="1">
          <mxGeometry x="300" y="300" width="80" height="40" as="geometry" />
        </mxCell>
        <mxCell id="S4FHqJlfXJ-YBWW90FeC-50" value="AXI Master" style="text;html=1;strokeColor=none;fillColor=none;align=center;verticalAlign=middle;whiteSpace=wrap;rounded=0;" parent="1" vertex="1">
          <mxGeometry x="140" y="600" width="170" height="30" as="geometry" />
        </mxCell>
        <mxCell id="S4FHqJlfXJ-YBWW90FeC-51" value="" style="shape=flexArrow;endArrow=classic;startArrow=classic;html=1;rounded=0;" parent="1" edge="1">
          <mxGeometry width="100" height="100" relative="1" as="geometry">
            <mxPoint x="530" y="459.78999999999996" as="sourcePoint" />
            <mxPoint x="630" y="459.78999999999996" as="targetPoint" />
          </mxGeometry>
        </mxCell>
        <mxCell id="S4FHqJlfXJ-YBWW90FeC-52" value="" style="rounded=1;whiteSpace=wrap;html=1;dashed=1;" parent="1" vertex="1">
          <mxGeometry x="120" y="680" width="400" height="360" as="geometry" />
        </mxCell>
        <mxCell id="S4FHqJlfXJ-YBWW90FeC-54" value="AXI&lt;br&gt;Interconnect" style="rounded=0;whiteSpace=wrap;html=1;" parent="1" vertex="1">
          <mxGeometry x="640" y="680" width="120" height="360" as="geometry" />
        </mxCell>
        <mxCell id="S4FHqJlfXJ-YBWW90FeC-55" value="AR" style="rounded=0;whiteSpace=wrap;html=1;fillColor=#fff2cc;strokeColor=#d6b656;" parent="1" vertex="1">
          <mxGeometry x="400" y="800" width="80" height="40" as="geometry" />
        </mxCell>
        <mxCell id="S4FHqJlfXJ-YBWW90FeC-57" value="R" style="rounded=0;whiteSpace=wrap;html=1;fillColor=#fff2cc;strokeColor=#d6b656;" parent="1" vertex="1">
          <mxGeometry x="400" y="840" width="80" height="40" as="geometry" />
        </mxCell>
        <mxCell id="S4FHqJlfXJ-YBWW90FeC-58" value="B" style="rounded=0;whiteSpace=wrap;html=1;fillColor=#fff2cc;strokeColor=#d6b656;" parent="1" vertex="1">
          <mxGeometry x="400" y="880" width="80" height="40" as="geometry" />
        </mxCell>
        <mxCell id="S4FHqJlfXJ-YBWW90FeC-59" value="AW" style="rounded=0;whiteSpace=wrap;html=1;fillColor=#fff2cc;strokeColor=#d6b656;" parent="1" vertex="1">
          <mxGeometry x="400" y="920" width="80" height="40" as="geometry" />
        </mxCell>
        <mxCell id="S4FHqJlfXJ-YBWW90FeC-60" value="W" style="rounded=0;whiteSpace=wrap;html=1;fillColor=#fff2cc;strokeColor=#d6b656;" parent="1" vertex="1">
          <mxGeometry x="400" y="960" width="80" height="40" as="geometry" />
        </mxCell>
        <mxCell id="S4FHqJlfXJ-YBWW90FeC-63" value="Burst&lt;br&gt;Counter" style="rounded=1;whiteSpace=wrap;html=1;fillColor=#dae8fc;strokeColor=#6c8ebf;" parent="1" vertex="1">
          <mxGeometry x="400" y="720" width="80" height="40" as="geometry" />
        </mxCell>
        <mxCell id="S4FHqJlfXJ-YBWW90FeC-68" value="AXI Master: bursting &amp;amp; InOrder" style="text;html=1;strokeColor=none;fillColor=none;align=center;verticalAlign=middle;whiteSpace=wrap;rounded=0;" parent="1" vertex="1">
          <mxGeometry x="140" y="1000" width="170" height="30" as="geometry" />
        </mxCell>
        <mxCell id="S4FHqJlfXJ-YBWW90FeC-69" value="" style="shape=flexArrow;endArrow=classic;startArrow=classic;html=1;rounded=0;" parent="1" edge="1">
          <mxGeometry width="100" height="100" relative="1" as="geometry">
            <mxPoint x="530" y="859.79" as="sourcePoint" />
            <mxPoint x="630" y="859.79" as="targetPoint" />
          </mxGeometry>
        </mxCell>
        <mxCell id="S4FHqJlfXJ-YBWW90FeC-70" value="Beat&lt;br&gt;Counter" style="rounded=1;whiteSpace=wrap;html=1;fillColor=#d5e8d4;strokeColor=#82b366;" parent="1" vertex="1">
          <mxGeometry x="270" y="720" width="80" height="40" as="geometry" />
        </mxCell>
        <mxCell id="S4FHqJlfXJ-YBWW90FeC-71" value="AxLEN" style="rounded=1;whiteSpace=wrap;html=1;fillColor=#e1d5e7;strokeColor=#9673a6;" parent="1" vertex="1">
          <mxGeometry x="160" y="540" width="80" height="40" as="geometry" />
        </mxCell>
        <mxCell id="SkjHFvPQyZqQ3PcsHYjH-1" value="MCU" style="rounded=1;whiteSpace=wrap;html=1;fillColor=#fff2cc;strokeColor=#d6b656;fontStyle=5" parent="1" vertex="1">
          <mxGeometry x="200" y="1160" width="80" height="200" as="geometry" />
        </mxCell>
        <mxCell id="SkjHFvPQyZqQ3PcsHYjH-2" value="PPM" style="rounded=1;whiteSpace=wrap;html=1;fillColor=#dae8fc;strokeColor=#6c8ebf;fontStyle=5" parent="1" vertex="1">
          <mxGeometry x="430" y="1160" width="80" height="80" as="geometry" />
        </mxCell>
        <mxCell id="SkjHFvPQyZqQ3PcsHYjH-3" value="" style="shape=flexArrow;endArrow=classic;html=1;rounded=0;endWidth=13.714285714285714;endSize=6.811428571428571;fillColor=#ffe6cc;strokeColor=#d79b00;fontStyle=1" parent="1" edge="1">
          <mxGeometry width="50" height="50" relative="1" as="geometry">
            <mxPoint x="300" y="1180" as="sourcePoint" />
            <mxPoint x="420" y="1180" as="targetPoint" />
          </mxGeometry>
        </mxCell>
        <mxCell id="SkjHFvPQyZqQ3PcsHYjH-5" value="AR" style="edgeLabel;html=1;align=center;verticalAlign=middle;resizable=0;points=[];fontStyle=1" parent="SkjHFvPQyZqQ3PcsHYjH-3" vertex="1" connectable="0">
          <mxGeometry x="-0.1405" y="2" relative="1" as="geometry">
            <mxPoint x="8" y="2" as="offset" />
          </mxGeometry>
        </mxCell>
        <mxCell id="SkjHFvPQyZqQ3PcsHYjH-6" value="" style="shape=flexArrow;endArrow=classic;html=1;rounded=0;endWidth=13.714285714285714;endSize=6.811428571428571;fillColor=#ffe6cc;strokeColor=#d79b00;fontStyle=1" parent="1" edge="1">
          <mxGeometry width="50" height="50" relative="1" as="geometry">
            <mxPoint x="420" y="1220" as="sourcePoint" />
            <mxPoint x="300" y="1220" as="targetPoint" />
          </mxGeometry>
        </mxCell>
        <mxCell id="SkjHFvPQyZqQ3PcsHYjH-8" value="R" style="edgeLabel;html=1;align=center;verticalAlign=middle;resizable=0;points=[];fontStyle=1" parent="SkjHFvPQyZqQ3PcsHYjH-6" vertex="1" connectable="0">
          <mxGeometry x="-0.0119" y="-2" relative="1" as="geometry">
            <mxPoint y="2" as="offset" />
          </mxGeometry>
        </mxCell>
        <mxCell id="SkjHFvPQyZqQ3PcsHYjH-10" value="ACC" style="rounded=1;whiteSpace=wrap;html=1;fillColor=#e1d5e7;strokeColor=#9673a6;fontStyle=5" parent="1" vertex="1">
          <mxGeometry x="430" y="1280" width="80" height="80" as="geometry" />
        </mxCell>
        <mxCell id="SkjHFvPQyZqQ3PcsHYjH-11" value="" style="shape=flexArrow;endArrow=classic;html=1;rounded=0;endWidth=13.714285714285714;endSize=6.811428571428571;fillColor=#d5e8d4;strokeColor=#82b366;fontStyle=1" parent="1" edge="1">
          <mxGeometry width="50" height="50" relative="1" as="geometry">
            <mxPoint x="301" y="1293" as="sourcePoint" />
            <mxPoint x="421" y="1293" as="targetPoint" />
          </mxGeometry>
        </mxCell>
        <mxCell id="SkjHFvPQyZqQ3PcsHYjH-12" value="AW" style="edgeLabel;html=1;align=center;verticalAlign=middle;resizable=0;points=[];fontStyle=1" parent="SkjHFvPQyZqQ3PcsHYjH-11" vertex="1" connectable="0">
          <mxGeometry x="-0.1405" y="2" relative="1" as="geometry">
            <mxPoint x="8" y="2" as="offset" />
          </mxGeometry>
        </mxCell>
        <mxCell id="SkjHFvPQyZqQ3PcsHYjH-13" value="" style="shape=flexArrow;endArrow=classic;html=1;rounded=0;endWidth=13.714285714285714;endSize=6.811428571428571;fillColor=#d5e8d4;strokeColor=#82b366;fontStyle=1" parent="1" edge="1">
          <mxGeometry width="50" height="50" relative="1" as="geometry">
            <mxPoint x="420" y="1346" as="sourcePoint" />
            <mxPoint x="300" y="1346" as="targetPoint" />
          </mxGeometry>
        </mxCell>
        <mxCell id="SkjHFvPQyZqQ3PcsHYjH-14" value="B" style="edgeLabel;html=1;align=center;verticalAlign=middle;resizable=0;points=[];fontStyle=1" parent="SkjHFvPQyZqQ3PcsHYjH-13" vertex="1" connectable="0">
          <mxGeometry x="-0.0119" y="-2" relative="1" as="geometry">
            <mxPoint y="2" as="offset" />
          </mxGeometry>
        </mxCell>
        <mxCell id="SkjHFvPQyZqQ3PcsHYjH-15" value="" style="shape=flexArrow;endArrow=classic;html=1;rounded=0;endWidth=13.714285714285714;endSize=6.811428571428571;fillColor=#d5e8d4;strokeColor=#82b366;fontStyle=1" parent="1" edge="1">
          <mxGeometry width="50" height="50" relative="1" as="geometry">
            <mxPoint x="300" y="1319.71" as="sourcePoint" />
            <mxPoint x="420" y="1319.71" as="targetPoint" />
          </mxGeometry>
        </mxCell>
        <mxCell id="SkjHFvPQyZqQ3PcsHYjH-16" value="W" style="edgeLabel;html=1;align=center;verticalAlign=middle;resizable=0;points=[];fontStyle=1" parent="SkjHFvPQyZqQ3PcsHYjH-15" vertex="1" connectable="0">
          <mxGeometry x="-0.1405" y="2" relative="1" as="geometry">
            <mxPoint x="8" y="2" as="offset" />
          </mxGeometry>
        </mxCell>
        <mxCell id="SkjHFvPQyZqQ3PcsHYjH-18" value="MCU" style="rounded=1;whiteSpace=wrap;html=1;fillColor=#fff2cc;strokeColor=#d6b656;fontStyle=5" parent="1" vertex="1">
          <mxGeometry x="200" y="1400" width="80" height="200" as="geometry" />
        </mxCell>
        <mxCell id="SkjHFvPQyZqQ3PcsHYjH-19" value="PPM" style="rounded=1;whiteSpace=wrap;html=1;fillColor=#dae8fc;strokeColor=#6c8ebf;fontStyle=5" parent="1" vertex="1">
          <mxGeometry x="650" y="1400" width="80" height="80" as="geometry" />
        </mxCell>
        <mxCell id="SkjHFvPQyZqQ3PcsHYjH-20" value="" style="shape=flexArrow;endArrow=classic;html=1;rounded=0;endWidth=13.714285714285714;endSize=6.811428571428571;fillColor=#ffe6cc;strokeColor=#d79b00;fontStyle=1" parent="1" edge="1">
          <mxGeometry width="50" height="50" relative="1" as="geometry">
            <mxPoint x="520" y="1420" as="sourcePoint" />
            <mxPoint x="640" y="1420" as="targetPoint" />
          </mxGeometry>
        </mxCell>
        <mxCell id="SkjHFvPQyZqQ3PcsHYjH-21" value="AR" style="edgeLabel;html=1;align=center;verticalAlign=middle;resizable=0;points=[];fontStyle=1" parent="SkjHFvPQyZqQ3PcsHYjH-20" vertex="1" connectable="0">
          <mxGeometry x="-0.1405" y="2" relative="1" as="geometry">
            <mxPoint x="8" y="2" as="offset" />
          </mxGeometry>
        </mxCell>
        <mxCell id="SkjHFvPQyZqQ3PcsHYjH-22" value="" style="shape=flexArrow;endArrow=classic;html=1;rounded=0;endWidth=13.714285714285714;endSize=6.811428571428571;fillColor=#ffe6cc;strokeColor=#d79b00;fontStyle=1" parent="1" edge="1">
          <mxGeometry width="50" height="50" relative="1" as="geometry">
            <mxPoint x="640" y="1460" as="sourcePoint" />
            <mxPoint x="520" y="1460" as="targetPoint" />
          </mxGeometry>
        </mxCell>
        <mxCell id="SkjHFvPQyZqQ3PcsHYjH-23" value="R" style="edgeLabel;html=1;align=center;verticalAlign=middle;resizable=0;points=[];fontStyle=1" parent="SkjHFvPQyZqQ3PcsHYjH-22" vertex="1" connectable="0">
          <mxGeometry x="-0.0119" y="-2" relative="1" as="geometry">
            <mxPoint y="2" as="offset" />
          </mxGeometry>
        </mxCell>
        <mxCell id="SkjHFvPQyZqQ3PcsHYjH-24" value="ACC" style="rounded=1;whiteSpace=wrap;html=1;fillColor=#e1d5e7;strokeColor=#9673a6;fontStyle=5" parent="1" vertex="1">
          <mxGeometry x="650" y="1520" width="80" height="80" as="geometry" />
        </mxCell>
        <mxCell id="SkjHFvPQyZqQ3PcsHYjH-25" value="" style="shape=flexArrow;endArrow=classic;html=1;rounded=0;endWidth=13.714285714285714;endSize=6.811428571428571;fillColor=#d5e8d4;strokeColor=#82b366;fontStyle=1" parent="1" edge="1">
          <mxGeometry width="50" height="50" relative="1" as="geometry">
            <mxPoint x="520" y="1526" as="sourcePoint" />
            <mxPoint x="640" y="1526" as="targetPoint" />
          </mxGeometry>
        </mxCell>
        <mxCell id="SkjHFvPQyZqQ3PcsHYjH-26" value="AW" style="edgeLabel;html=1;align=center;verticalAlign=middle;resizable=0;points=[];fontStyle=1" parent="SkjHFvPQyZqQ3PcsHYjH-25" vertex="1" connectable="0">
          <mxGeometry x="-0.1405" y="2" relative="1" as="geometry">
            <mxPoint x="8" y="2" as="offset" />
          </mxGeometry>
        </mxCell>
        <mxCell id="SkjHFvPQyZqQ3PcsHYjH-27" value="" style="shape=flexArrow;endArrow=classic;html=1;rounded=0;endWidth=13.714285714285714;endSize=6.811428571428571;fillColor=#d5e8d4;strokeColor=#82b366;fontStyle=1" parent="1" edge="1">
          <mxGeometry width="50" height="50" relative="1" as="geometry">
            <mxPoint x="640" y="1586" as="sourcePoint" />
            <mxPoint x="520" y="1586" as="targetPoint" />
          </mxGeometry>
        </mxCell>
        <mxCell id="SkjHFvPQyZqQ3PcsHYjH-28" value="B" style="edgeLabel;html=1;align=center;verticalAlign=middle;resizable=0;points=[];fontStyle=1" parent="SkjHFvPQyZqQ3PcsHYjH-27" vertex="1" connectable="0">
          <mxGeometry x="-0.0119" y="-2" relative="1" as="geometry">
            <mxPoint y="2" as="offset" />
          </mxGeometry>
        </mxCell>
        <mxCell id="SkjHFvPQyZqQ3PcsHYjH-29" value="" style="shape=flexArrow;endArrow=classic;html=1;rounded=0;endWidth=13.714285714285714;endSize=6.811428571428571;fillColor=#d5e8d4;strokeColor=#82b366;fontStyle=1" parent="1" edge="1">
          <mxGeometry width="50" height="50" relative="1" as="geometry">
            <mxPoint x="520" y="1559.71" as="sourcePoint" />
            <mxPoint x="640" y="1559.71" as="targetPoint" />
          </mxGeometry>
        </mxCell>
        <mxCell id="SkjHFvPQyZqQ3PcsHYjH-30" value="W" style="edgeLabel;html=1;align=center;verticalAlign=middle;resizable=0;points=[];fontStyle=1" parent="SkjHFvPQyZqQ3PcsHYjH-29" vertex="1" connectable="0">
          <mxGeometry x="-0.1405" y="2" relative="1" as="geometry">
            <mxPoint x="8" y="2" as="offset" />
          </mxGeometry>
        </mxCell>
        <mxCell id="SkjHFvPQyZqQ3PcsHYjH-31" value="AXI&lt;br&gt;Interface" style="rounded=1;whiteSpace=wrap;html=1;fillColor=#b1ddf0;fontStyle=5;strokeColor=#10739e;" parent="1" vertex="1">
          <mxGeometry x="430" y="1400" width="80" height="200" as="geometry" />
        </mxCell>
        <mxCell id="SkjHFvPQyZqQ3PcsHYjH-32" value="" style="shape=flexArrow;endArrow=classic;html=1;rounded=0;endWidth=13.714285714285714;endSize=6.811428571428571;fillColor=#b0e3e6;strokeColor=#0e8088;fontStyle=1" parent="1" edge="1">
          <mxGeometry width="50" height="50" relative="1" as="geometry">
            <mxPoint x="290" y="1500" as="sourcePoint" />
            <mxPoint x="410" y="1500" as="targetPoint" />
          </mxGeometry>
        </mxCell>
        <mxCell id="SkjHFvPQyZqQ3PcsHYjH-33" value="Addr" style="edgeLabel;html=1;align=center;verticalAlign=middle;resizable=0;points=[];fontStyle=1" parent="SkjHFvPQyZqQ3PcsHYjH-32" vertex="1" connectable="0">
          <mxGeometry x="-0.1405" y="2" relative="1" as="geometry">
            <mxPoint x="8" y="2" as="offset" />
          </mxGeometry>
        </mxCell>
        <mxCell id="SkjHFvPQyZqQ3PcsHYjH-34" value="" style="shape=flexArrow;endArrow=classic;html=1;rounded=0;endWidth=13.714285714285714;endSize=6.811428571428571;fillColor=#b0e3e6;strokeColor=#0e8088;fontStyle=1" parent="1" edge="1">
          <mxGeometry width="50" height="50" relative="1" as="geometry">
            <mxPoint x="290" y="1540" as="sourcePoint" />
            <mxPoint x="410" y="1540" as="targetPoint" />
          </mxGeometry>
        </mxCell>
        <mxCell id="SkjHFvPQyZqQ3PcsHYjH-35" value="Read/Write" style="edgeLabel;html=1;align=center;verticalAlign=middle;resizable=0;points=[];fontStyle=1" parent="SkjHFvPQyZqQ3PcsHYjH-34" vertex="1" connectable="0">
          <mxGeometry x="-0.1405" y="2" relative="1" as="geometry">
            <mxPoint x="8" y="2" as="offset" />
          </mxGeometry>
        </mxCell>
        <mxCell id="SkjHFvPQyZqQ3PcsHYjH-36" value="" style="shape=flexArrow;endArrow=classic;html=1;rounded=0;endWidth=13.714285714285714;endSize=6.811428571428571;fillColor=#b0e3e6;strokeColor=#0e8088;fontStyle=1" parent="1" edge="1">
          <mxGeometry width="50" height="50" relative="1" as="geometry">
            <mxPoint x="290" y="1580" as="sourcePoint" />
            <mxPoint x="410" y="1580" as="targetPoint" />
          </mxGeometry>
        </mxCell>
        <mxCell id="SkjHFvPQyZqQ3PcsHYjH-37" value="Write_Data" style="edgeLabel;html=1;align=center;verticalAlign=middle;resizable=0;points=[];fontStyle=1" parent="SkjHFvPQyZqQ3PcsHYjH-36" vertex="1" connectable="0">
          <mxGeometry x="-0.1405" y="2" relative="1" as="geometry">
            <mxPoint x="8" y="2" as="offset" />
          </mxGeometry>
        </mxCell>
        <mxCell id="SkjHFvPQyZqQ3PcsHYjH-38" value="" style="shape=flexArrow;endArrow=classic;html=1;rounded=0;endWidth=13.714285714285714;endSize=6.811428571428571;fillColor=#fad9d5;strokeColor=#ae4132;fontStyle=1" parent="1" edge="1">
          <mxGeometry width="50" height="50" relative="1" as="geometry">
            <mxPoint x="410" y="1419.82" as="sourcePoint" />
            <mxPoint x="290" y="1419.82" as="targetPoint" />
          </mxGeometry>
        </mxCell>
        <mxCell id="SkjHFvPQyZqQ3PcsHYjH-39" value="Read_Data" style="edgeLabel;html=1;align=center;verticalAlign=middle;resizable=0;points=[];fontStyle=1" parent="SkjHFvPQyZqQ3PcsHYjH-38" vertex="1" connectable="0">
          <mxGeometry x="-0.0119" y="-2" relative="1" as="geometry">
            <mxPoint y="2" as="offset" />
          </mxGeometry>
        </mxCell>
        <mxCell id="SkjHFvPQyZqQ3PcsHYjH-41" value="" style="shape=flexArrow;endArrow=classic;html=1;rounded=0;endWidth=13.714285714285714;endSize=6.811428571428571;fillColor=#fad9d5;strokeColor=#ae4132;fontStyle=1" parent="1" edge="1">
          <mxGeometry width="50" height="50" relative="1" as="geometry">
            <mxPoint x="410" y="1459.82" as="sourcePoint" />
            <mxPoint x="290" y="1459.82" as="targetPoint" />
          </mxGeometry>
        </mxCell>
        <mxCell id="SkjHFvPQyZqQ3PcsHYjH-42" value="Error" style="edgeLabel;html=1;align=center;verticalAlign=middle;resizable=0;points=[];fontStyle=1" parent="SkjHFvPQyZqQ3PcsHYjH-41" vertex="1" connectable="0">
          <mxGeometry x="-0.0119" y="-2" relative="1" as="geometry">
            <mxPoint y="2" as="offset" />
          </mxGeometry>
        </mxCell>
        <mxCell id="YGJ72AznllFPjdNBUUNP-44" value="" style="rounded=1;whiteSpace=wrap;html=1;dashed=1;" parent="1" vertex="1">
          <mxGeometry x="5.33" y="2680.56" width="156" height="450" as="geometry" />
        </mxCell>
        <mxCell id="YGJ72AznllFPjdNBUUNP-16" value="" style="group" parent="1" vertex="1" connectable="0">
          <mxGeometry x="15" y="2711.1111111111113" width="136.66666666666666" height="388.88888888888886" as="geometry" />
        </mxCell>
        <mxCell id="YGJ72AznllFPjdNBUUNP-1" value="ACC" style="rounded=0;whiteSpace=wrap;html=1;fillColor=#fff2cc;strokeColor=#d6b656;" parent="YGJ72AznllFPjdNBUUNP-16" vertex="1">
          <mxGeometry y="311.1111111111111" width="136.66666666666666" height="77.77777777777777" as="geometry" />
        </mxCell>
        <mxCell id="YGJ72AznllFPjdNBUUNP-2" value="Ping" style="rounded=1;whiteSpace=wrap;html=1;fillColor=#d5e8d4;strokeColor=#82b366;" parent="YGJ72AznllFPjdNBUUNP-16" vertex="1">
          <mxGeometry width="68.33333333333333" height="77.77777777777777" as="geometry" />
        </mxCell>
        <mxCell id="YGJ72AznllFPjdNBUUNP-3" value="Pong" style="rounded=1;whiteSpace=wrap;html=1;fillColor=#dae8fc;strokeColor=#6c8ebf;" parent="YGJ72AznllFPjdNBUUNP-16" vertex="1">
          <mxGeometry x="68.33333333333333" width="68.33333333333333" height="77.77777777777777" as="geometry" />
        </mxCell>
        <mxCell id="YGJ72AznllFPjdNBUUNP-13" style="edgeStyle=orthogonalEdgeStyle;rounded=0;orthogonalLoop=1;jettySize=auto;html=1;exitX=0.5;exitY=1;exitDx=0;exitDy=0;entryX=0.5;entryY=0;entryDx=0;entryDy=0;" parent="YGJ72AznllFPjdNBUUNP-16" source="YGJ72AznllFPjdNBUUNP-4" target="YGJ72AznllFPjdNBUUNP-1" edge="1">
          <mxGeometry relative="1" as="geometry" />
        </mxCell>
        <mxCell id="YGJ72AznllFPjdNBUUNP-4" value="DMA" style="rounded=1;whiteSpace=wrap;html=1;fillColor=#f8cecc;strokeColor=#b85450;" parent="YGJ72AznllFPjdNBUUNP-16" vertex="1">
          <mxGeometry y="155.55555555555554" width="136.66666666666666" height="77.77777777777777" as="geometry" />
        </mxCell>
        <mxCell id="YGJ72AznllFPjdNBUUNP-14" style="edgeStyle=orthogonalEdgeStyle;rounded=0;orthogonalLoop=1;jettySize=auto;html=1;exitX=0.5;exitY=1;exitDx=0;exitDy=0;entryX=0.25;entryY=0;entryDx=0;entryDy=0;" parent="YGJ72AznllFPjdNBUUNP-16" source="YGJ72AznllFPjdNBUUNP-2" target="YGJ72AznllFPjdNBUUNP-4" edge="1">
          <mxGeometry relative="1" as="geometry" />
        </mxCell>
        <mxCell id="YGJ72AznllFPjdNBUUNP-15" style="edgeStyle=orthogonalEdgeStyle;rounded=0;orthogonalLoop=1;jettySize=auto;html=1;exitX=0.5;exitY=1;exitDx=0;exitDy=0;entryX=0.75;entryY=0;entryDx=0;entryDy=0;" parent="YGJ72AznllFPjdNBUUNP-16" source="YGJ72AznllFPjdNBUUNP-3" target="YGJ72AznllFPjdNBUUNP-4" edge="1">
          <mxGeometry relative="1" as="geometry" />
        </mxCell>
        <mxCell id="YGJ72AznllFPjdNBUUNP-17" value="" style="group" parent="1" vertex="1" connectable="0">
          <mxGeometry x="220" y="2711.1111111111113" width="146.33" height="419.44888888888863" as="geometry" />
        </mxCell>
        <mxCell id="YGJ72AznllFPjdNBUUNP-46" value="" style="rounded=1;whiteSpace=wrap;html=1;dashed=1;" parent="YGJ72AznllFPjdNBUUNP-17" vertex="1">
          <mxGeometry x="-9.669999999999987" y="-30.551111111111368" width="156" height="450" as="geometry" />
        </mxCell>
        <mxCell id="YGJ72AznllFPjdNBUUNP-18" value="ACC" style="rounded=0;whiteSpace=wrap;html=1;fillColor=#fff2cc;strokeColor=#d6b656;" parent="YGJ72AznllFPjdNBUUNP-17" vertex="1">
          <mxGeometry y="311.1111111111111" width="136.66666666666666" height="77.77777777777777" as="geometry" />
        </mxCell>
        <mxCell id="YGJ72AznllFPjdNBUUNP-19" value="Ping" style="rounded=1;whiteSpace=wrap;html=1;fillColor=#d5e8d4;strokeColor=#82b366;" parent="YGJ72AznllFPjdNBUUNP-17" vertex="1">
          <mxGeometry width="68.33333333333333" height="77.77777777777777" as="geometry" />
        </mxCell>
        <mxCell id="YGJ72AznllFPjdNBUUNP-20" value="Pong" style="rounded=1;whiteSpace=wrap;html=1;fillColor=#dae8fc;strokeColor=#6c8ebf;" parent="YGJ72AznllFPjdNBUUNP-17" vertex="1">
          <mxGeometry x="68.33333333333333" width="68.33333333333333" height="77.77777777777777" as="geometry" />
        </mxCell>
        <mxCell id="YGJ72AznllFPjdNBUUNP-21" style="edgeStyle=orthogonalEdgeStyle;rounded=0;orthogonalLoop=1;jettySize=auto;html=1;exitX=0.5;exitY=1;exitDx=0;exitDy=0;entryX=0.5;entryY=0;entryDx=0;entryDy=0;" parent="YGJ72AznllFPjdNBUUNP-17" source="YGJ72AznllFPjdNBUUNP-22" target="YGJ72AznllFPjdNBUUNP-18" edge="1">
          <mxGeometry relative="1" as="geometry" />
        </mxCell>
        <mxCell id="YGJ72AznllFPjdNBUUNP-22" value="DMA" style="rounded=1;whiteSpace=wrap;html=1;fillColor=#f8cecc;strokeColor=#b85450;" parent="YGJ72AznllFPjdNBUUNP-17" vertex="1">
          <mxGeometry y="155.55555555555554" width="136.66666666666666" height="77.77777777777777" as="geometry" />
        </mxCell>
        <mxCell id="YGJ72AznllFPjdNBUUNP-23" style="edgeStyle=orthogonalEdgeStyle;rounded=0;orthogonalLoop=1;jettySize=auto;html=1;exitX=0.5;exitY=1;exitDx=0;exitDy=0;entryX=0.25;entryY=0;entryDx=0;entryDy=0;" parent="YGJ72AznllFPjdNBUUNP-17" source="YGJ72AznllFPjdNBUUNP-19" target="YGJ72AznllFPjdNBUUNP-22" edge="1">
          <mxGeometry relative="1" as="geometry" />
        </mxCell>
        <mxCell id="YGJ72AznllFPjdNBUUNP-24" style="edgeStyle=orthogonalEdgeStyle;rounded=0;orthogonalLoop=1;jettySize=auto;html=1;exitX=0.5;exitY=1;exitDx=0;exitDy=0;entryX=0.75;entryY=0;entryDx=0;entryDy=0;" parent="YGJ72AznllFPjdNBUUNP-17" source="YGJ72AznllFPjdNBUUNP-20" target="YGJ72AznllFPjdNBUUNP-22" edge="1">
          <mxGeometry relative="1" as="geometry" />
        </mxCell>
        <mxCell id="YGJ72AznllFPjdNBUUNP-25" value="" style="group" parent="1" vertex="1" connectable="0">
          <mxGeometry x="425" y="2711.1111111111113" width="146.32999999999998" height="419.44888888888863" as="geometry" />
        </mxCell>
        <mxCell id="YGJ72AznllFPjdNBUUNP-47" value="" style="rounded=1;whiteSpace=wrap;html=1;dashed=1;" parent="YGJ72AznllFPjdNBUUNP-25" vertex="1">
          <mxGeometry x="-9.670000000000016" y="-30.551111111111368" width="156" height="450" as="geometry" />
        </mxCell>
        <mxCell id="YGJ72AznllFPjdNBUUNP-26" value="ACC" style="rounded=0;whiteSpace=wrap;html=1;fillColor=#fff2cc;strokeColor=#d6b656;" parent="YGJ72AznllFPjdNBUUNP-25" vertex="1">
          <mxGeometry y="311.1111111111111" width="136.66666666666666" height="77.77777777777777" as="geometry" />
        </mxCell>
        <mxCell id="YGJ72AznllFPjdNBUUNP-27" value="Ping" style="rounded=1;whiteSpace=wrap;html=1;fillColor=#d5e8d4;strokeColor=#82b366;" parent="YGJ72AznllFPjdNBUUNP-25" vertex="1">
          <mxGeometry width="68.33333333333333" height="77.77777777777777" as="geometry" />
        </mxCell>
        <mxCell id="YGJ72AznllFPjdNBUUNP-28" value="Pong" style="rounded=1;whiteSpace=wrap;html=1;fillColor=#dae8fc;strokeColor=#6c8ebf;" parent="YGJ72AznllFPjdNBUUNP-25" vertex="1">
          <mxGeometry x="68.33333333333333" width="68.33333333333333" height="77.77777777777777" as="geometry" />
        </mxCell>
        <mxCell id="YGJ72AznllFPjdNBUUNP-29" style="edgeStyle=orthogonalEdgeStyle;rounded=0;orthogonalLoop=1;jettySize=auto;html=1;exitX=0.5;exitY=1;exitDx=0;exitDy=0;entryX=0.5;entryY=0;entryDx=0;entryDy=0;" parent="YGJ72AznllFPjdNBUUNP-25" source="YGJ72AznllFPjdNBUUNP-30" target="YGJ72AznllFPjdNBUUNP-26" edge="1">
          <mxGeometry relative="1" as="geometry" />
        </mxCell>
        <mxCell id="YGJ72AznllFPjdNBUUNP-30" value="DMA" style="rounded=1;whiteSpace=wrap;html=1;fillColor=#f8cecc;strokeColor=#b85450;" parent="YGJ72AznllFPjdNBUUNP-25" vertex="1">
          <mxGeometry y="155.55555555555554" width="136.66666666666666" height="77.77777777777777" as="geometry" />
        </mxCell>
        <mxCell id="YGJ72AznllFPjdNBUUNP-31" style="edgeStyle=orthogonalEdgeStyle;rounded=0;orthogonalLoop=1;jettySize=auto;html=1;exitX=0.5;exitY=1;exitDx=0;exitDy=0;entryX=0.25;entryY=0;entryDx=0;entryDy=0;" parent="YGJ72AznllFPjdNBUUNP-25" source="YGJ72AznllFPjdNBUUNP-27" target="YGJ72AznllFPjdNBUUNP-30" edge="1">
          <mxGeometry relative="1" as="geometry" />
        </mxCell>
        <mxCell id="YGJ72AznllFPjdNBUUNP-32" style="edgeStyle=orthogonalEdgeStyle;rounded=0;orthogonalLoop=1;jettySize=auto;html=1;exitX=0.5;exitY=1;exitDx=0;exitDy=0;entryX=0.75;entryY=0;entryDx=0;entryDy=0;" parent="YGJ72AznllFPjdNBUUNP-25" source="YGJ72AznllFPjdNBUUNP-28" target="YGJ72AznllFPjdNBUUNP-30" edge="1">
          <mxGeometry relative="1" as="geometry" />
        </mxCell>
        <mxCell id="YGJ72AznllFPjdNBUUNP-38" style="edgeStyle=orthogonalEdgeStyle;rounded=0;orthogonalLoop=1;jettySize=auto;html=1;exitX=0.5;exitY=1;exitDx=0;exitDy=0;entryX=1;entryY=0;entryDx=0;entryDy=0;" parent="1" source="YGJ72AznllFPjdNBUUNP-33" target="YGJ72AznllFPjdNBUUNP-2" edge="1">
          <mxGeometry relative="1" as="geometry" />
        </mxCell>
        <mxCell id="YGJ72AznllFPjdNBUUNP-39" style="edgeStyle=orthogonalEdgeStyle;rounded=0;orthogonalLoop=1;jettySize=auto;html=1;exitX=0.5;exitY=1;exitDx=0;exitDy=0;entryX=0;entryY=0;entryDx=0;entryDy=0;" parent="1" source="YGJ72AznllFPjdNBUUNP-33" target="YGJ72AznllFPjdNBUUNP-20" edge="1">
          <mxGeometry relative="1" as="geometry" />
        </mxCell>
        <mxCell id="YGJ72AznllFPjdNBUUNP-40" style="edgeStyle=orthogonalEdgeStyle;rounded=0;orthogonalLoop=1;jettySize=auto;html=1;exitX=0.5;exitY=1;exitDx=0;exitDy=0;entryX=1;entryY=0;entryDx=0;entryDy=0;" parent="1" source="YGJ72AznllFPjdNBUUNP-33" target="YGJ72AznllFPjdNBUUNP-27" edge="1">
          <mxGeometry relative="1" as="geometry" />
        </mxCell>
        <mxCell id="YGJ72AznllFPjdNBUUNP-33" value="L1C" style="rounded=1;whiteSpace=wrap;html=1;fillColor=#f5f5f5;fontColor=#333333;strokeColor=#666666;" parent="1" vertex="1">
          <mxGeometry x="300.00333333333333" y="2410" width="205" height="116.66666666666667" as="geometry" />
        </mxCell>
        <mxCell id="YGJ72AznllFPjdNBUUNP-41" value="Other Module" style="rounded=1;whiteSpace=wrap;html=1;fillColor=#e1d5e7;strokeColor=#9673a6;" parent="1" vertex="1">
          <mxGeometry x="630" y="2711.11" width="205" height="78.89" as="geometry" />
        </mxCell>
        <mxCell id="YGJ72AznllFPjdNBUUNP-42" style="edgeStyle=orthogonalEdgeStyle;rounded=0;orthogonalLoop=1;jettySize=auto;html=1;exitX=0.5;exitY=1;exitDx=0;exitDy=0;entryX=0.5;entryY=0;entryDx=0;entryDy=0;" parent="1" source="YGJ72AznllFPjdNBUUNP-33" target="YGJ72AznllFPjdNBUUNP-41" edge="1">
          <mxGeometry relative="1" as="geometry" />
        </mxCell>
        <mxCell id="YGJ72AznllFPjdNBUUNP-48" value="AXI" style="edgeLabel;html=1;align=center;verticalAlign=middle;resizable=0;points=[];" parent="YGJ72AznllFPjdNBUUNP-42" vertex="1" connectable="0">
          <mxGeometry x="-0.8279" relative="1" as="geometry">
            <mxPoint as="offset" />
          </mxGeometry>
        </mxCell>
        <mxCell id="YGJ72AznllFPjdNBUUNP-49" value="" style="rounded=1;whiteSpace=wrap;html=1;dashed=1;" parent="1" vertex="1">
          <mxGeometry x="10" y="3930" width="156" height="280.56" as="geometry" />
        </mxCell>
        <mxCell id="YGJ72AznllFPjdNBUUNP-89" style="edgeStyle=orthogonalEdgeStyle;rounded=0;orthogonalLoop=1;jettySize=auto;html=1;exitX=0.5;exitY=1;exitDx=0;exitDy=0;" parent="1" source="YGJ72AznllFPjdNBUUNP-79" target="YGJ72AznllFPjdNBUUNP-88" edge="1">
          <mxGeometry relative="1" as="geometry" />
        </mxCell>
        <mxCell id="YGJ72AznllFPjdNBUUNP-79" value="L1C" style="rounded=1;whiteSpace=wrap;html=1;fillColor=#f5f5f5;fontColor=#333333;strokeColor=#666666;" parent="1" vertex="1">
          <mxGeometry x="395.50333333333333" y="3460" width="205" height="116.66666666666667" as="geometry" />
        </mxCell>
        <mxCell id="YGJ72AznllFPjdNBUUNP-80" value="Other Module" style="rounded=1;whiteSpace=wrap;html=1;fillColor=#e1d5e7;strokeColor=#9673a6;" parent="1" vertex="1">
          <mxGeometry x="634.67" y="3680" width="205" height="200" as="geometry" />
        </mxCell>
        <mxCell id="YGJ72AznllFPjdNBUUNP-81" style="edgeStyle=orthogonalEdgeStyle;rounded=0;orthogonalLoop=1;jettySize=auto;html=1;exitX=0.5;exitY=1;exitDx=0;exitDy=0;entryX=0.5;entryY=0;entryDx=0;entryDy=0;" parent="1" source="YGJ72AznllFPjdNBUUNP-79" target="YGJ72AznllFPjdNBUUNP-80" edge="1">
          <mxGeometry relative="1" as="geometry" />
        </mxCell>
        <mxCell id="YGJ72AznllFPjdNBUUNP-82" value="AXI" style="edgeLabel;html=1;align=center;verticalAlign=middle;resizable=0;points=[];" parent="YGJ72AznllFPjdNBUUNP-81" vertex="1" connectable="0">
          <mxGeometry x="-0.8279" relative="1" as="geometry">
            <mxPoint as="offset" />
          </mxGeometry>
        </mxCell>
        <mxCell id="YGJ72AznllFPjdNBUUNP-51" value="ACC" style="rounded=0;whiteSpace=wrap;html=1;fillColor=#fff2cc;strokeColor=#d6b656;" parent="1" vertex="1">
          <mxGeometry x="19.67" y="4102.222222222223" width="136.66666666666666" height="77.77777777777777" as="geometry" />
        </mxCell>
        <mxCell id="YGJ72AznllFPjdNBUUNP-54" style="edgeStyle=orthogonalEdgeStyle;rounded=0;orthogonalLoop=1;jettySize=auto;html=1;exitX=0.5;exitY=1;exitDx=0;exitDy=0;entryX=0.5;entryY=0;entryDx=0;entryDy=0;" parent="1" source="YGJ72AznllFPjdNBUUNP-55" target="YGJ72AznllFPjdNBUUNP-51" edge="1">
          <mxGeometry relative="1" as="geometry" />
        </mxCell>
        <mxCell id="YGJ72AznllFPjdNBUUNP-55" value="DMA" style="rounded=1;whiteSpace=wrap;html=1;fillColor=#f8cecc;strokeColor=#b85450;" parent="1" vertex="1">
          <mxGeometry x="19.67" y="3946.666666666667" width="136.66666666666666" height="77.77777777777777" as="geometry" />
        </mxCell>
        <mxCell id="YGJ72AznllFPjdNBUUNP-59" value="" style="rounded=1;whiteSpace=wrap;html=1;dashed=1;" parent="1" vertex="1">
          <mxGeometry x="215" y="3931.1111111111113" width="156" height="279.45" as="geometry" />
        </mxCell>
        <mxCell id="YGJ72AznllFPjdNBUUNP-60" value="ACC" style="rounded=0;whiteSpace=wrap;html=1;fillColor=#fff2cc;strokeColor=#d6b656;" parent="1" vertex="1">
          <mxGeometry x="224.67" y="4102.222222222223" width="136.66666666666666" height="77.77777777777777" as="geometry" />
        </mxCell>
        <mxCell id="YGJ72AznllFPjdNBUUNP-63" style="edgeStyle=orthogonalEdgeStyle;rounded=0;orthogonalLoop=1;jettySize=auto;html=1;exitX=0.5;exitY=1;exitDx=0;exitDy=0;entryX=0.5;entryY=0;entryDx=0;entryDy=0;" parent="1" source="YGJ72AznllFPjdNBUUNP-64" target="YGJ72AznllFPjdNBUUNP-60" edge="1">
          <mxGeometry relative="1" as="geometry" />
        </mxCell>
        <mxCell id="YGJ72AznllFPjdNBUUNP-64" value="DMA" style="rounded=1;whiteSpace=wrap;html=1;fillColor=#f8cecc;strokeColor=#b85450;" parent="1" vertex="1">
          <mxGeometry x="224.67" y="3946.666666666667" width="136.66666666666666" height="77.77777777777777" as="geometry" />
        </mxCell>
        <mxCell id="YGJ72AznllFPjdNBUUNP-68" value="" style="rounded=1;whiteSpace=wrap;html=1;dashed=1;" parent="1" vertex="1">
          <mxGeometry x="420" y="3931.1111111111113" width="156" height="279.45" as="geometry" />
        </mxCell>
        <mxCell id="YGJ72AznllFPjdNBUUNP-69" value="ACC" style="rounded=0;whiteSpace=wrap;html=1;fillColor=#fff2cc;strokeColor=#d6b656;" parent="1" vertex="1">
          <mxGeometry x="429.67" y="4102.222222222223" width="136.66666666666666" height="77.77777777777777" as="geometry" />
        </mxCell>
        <mxCell id="YGJ72AznllFPjdNBUUNP-72" style="edgeStyle=orthogonalEdgeStyle;rounded=0;orthogonalLoop=1;jettySize=auto;html=1;exitX=0.5;exitY=1;exitDx=0;exitDy=0;entryX=0.5;entryY=0;entryDx=0;entryDy=0;" parent="1" source="YGJ72AznllFPjdNBUUNP-73" target="YGJ72AznllFPjdNBUUNP-69" edge="1">
          <mxGeometry relative="1" as="geometry" />
        </mxCell>
        <mxCell id="YGJ72AznllFPjdNBUUNP-73" value="DMA" style="rounded=1;whiteSpace=wrap;html=1;fillColor=#f8cecc;strokeColor=#b85450;" parent="1" vertex="1">
          <mxGeometry x="429.67" y="3946.666666666667" width="136.66666666666666" height="77.77777777777777" as="geometry" />
        </mxCell>
        <mxCell id="YGJ72AznllFPjdNBUUNP-91" value="" style="group" parent="1" vertex="1" connectable="0">
          <mxGeometry x="153" y="3680" width="280" height="200" as="geometry" />
        </mxCell>
        <mxCell id="YGJ72AznllFPjdNBUUNP-88" value="" style="rounded=1;whiteSpace=wrap;html=1;dashed=1;dashPattern=1 2;" parent="YGJ72AznllFPjdNBUUNP-91" vertex="1">
          <mxGeometry width="280" height="200" as="geometry" />
        </mxCell>
        <mxCell id="YGJ72AznllFPjdNBUUNP-86" value="" style="group" parent="YGJ72AznllFPjdNBUUNP-91" vertex="1" connectable="0">
          <mxGeometry x="36.34" y="30.001111111111186" width="205.01666666666665" height="155.55777777777803" as="geometry" />
        </mxCell>
        <mxCell id="YGJ72AznllFPjdNBUUNP-52" value="Ping" style="rounded=1;whiteSpace=wrap;html=1;fillColor=#d5e8d4;strokeColor=#82b366;" parent="YGJ72AznllFPjdNBUUNP-86" vertex="1">
          <mxGeometry width="68.33333333333333" height="77.77777777777777" as="geometry" />
        </mxCell>
        <mxCell id="YGJ72AznllFPjdNBUUNP-53" value="Pong" style="rounded=1;whiteSpace=wrap;html=1;fillColor=#dae8fc;strokeColor=#6c8ebf;" parent="YGJ72AznllFPjdNBUUNP-86" vertex="1">
          <mxGeometry x="0.0033333333333303017" y="77.7800000000002" width="68.33333333333333" height="77.77777777777777" as="geometry" />
        </mxCell>
        <mxCell id="YGJ72AznllFPjdNBUUNP-61" value="Ping" style="rounded=1;whiteSpace=wrap;html=1;fillColor=#d5e8d4;strokeColor=#82b366;" parent="YGJ72AznllFPjdNBUUNP-86" vertex="1">
          <mxGeometry x="68.33999999999997" width="68.33333333333333" height="77.77777777777777" as="geometry" />
        </mxCell>
        <mxCell id="YGJ72AznllFPjdNBUUNP-62" value="Pong" style="rounded=1;whiteSpace=wrap;html=1;fillColor=#dae8fc;strokeColor=#6c8ebf;" parent="YGJ72AznllFPjdNBUUNP-86" vertex="1">
          <mxGeometry x="68.34333333333336" y="77.7800000000002" width="68.33333333333333" height="77.77777777777777" as="geometry" />
        </mxCell>
        <mxCell id="YGJ72AznllFPjdNBUUNP-70" value="Ping" style="rounded=1;whiteSpace=wrap;html=1;fillColor=#d5e8d4;strokeColor=#82b366;" parent="YGJ72AznllFPjdNBUUNP-86" vertex="1">
          <mxGeometry x="136.68" y="4.547473508864641e-13" width="68.33333333333333" height="77.77777777777777" as="geometry" />
        </mxCell>
        <mxCell id="YGJ72AznllFPjdNBUUNP-71" value="Pong" style="rounded=1;whiteSpace=wrap;html=1;fillColor=#dae8fc;strokeColor=#6c8ebf;" parent="YGJ72AznllFPjdNBUUNP-86" vertex="1">
          <mxGeometry x="136.68333333333334" y="77.7800000000002" width="68.33333333333333" height="77.77777777777777" as="geometry" />
        </mxCell>
        <mxCell id="YGJ72AznllFPjdNBUUNP-93" style="edgeStyle=orthogonalEdgeStyle;rounded=0;orthogonalLoop=1;jettySize=auto;html=1;exitX=0.5;exitY=1;exitDx=0;exitDy=0;entryX=0.5;entryY=0;entryDx=0;entryDy=0;" parent="1" source="YGJ72AznllFPjdNBUUNP-88" target="YGJ72AznllFPjdNBUUNP-68" edge="1">
          <mxGeometry relative="1" as="geometry">
            <Array as="points">
              <mxPoint x="293" y="3906" />
              <mxPoint x="498" y="3906" />
            </Array>
          </mxGeometry>
        </mxCell>
        <mxCell id="YGJ72AznllFPjdNBUUNP-94" style="edgeStyle=orthogonalEdgeStyle;rounded=0;orthogonalLoop=1;jettySize=auto;html=1;exitX=0.5;exitY=1;exitDx=0;exitDy=0;entryX=0.5;entryY=0;entryDx=0;entryDy=0;" parent="1" source="YGJ72AznllFPjdNBUUNP-88" target="YGJ72AznllFPjdNBUUNP-49" edge="1">
          <mxGeometry relative="1" as="geometry" />
        </mxCell>
        <mxCell id="YGJ72AznllFPjdNBUUNP-97" style="edgeStyle=orthogonalEdgeStyle;rounded=0;orthogonalLoop=1;jettySize=auto;html=1;exitX=0.5;exitY=1;exitDx=0;exitDy=0;" parent="1" source="YGJ72AznllFPjdNBUUNP-98" target="YGJ72AznllFPjdNBUUNP-114" edge="1">
          <mxGeometry relative="1" as="geometry" />
        </mxCell>
        <mxCell id="YGJ72AznllFPjdNBUUNP-98" value="L1C" style="rounded=1;whiteSpace=wrap;html=1;fillColor=#f5f5f5;fontColor=#333333;strokeColor=#666666;" parent="1" vertex="1">
          <mxGeometry x="385.50333333333333" y="4480" width="205" height="116.66666666666667" as="geometry" />
        </mxCell>
        <mxCell id="YGJ72AznllFPjdNBUUNP-99" value="Other Module" style="rounded=1;whiteSpace=wrap;html=1;fillColor=#e1d5e7;strokeColor=#9673a6;" parent="1" vertex="1">
          <mxGeometry x="624.67" y="4700" width="205" height="200" as="geometry" />
        </mxCell>
        <mxCell id="YGJ72AznllFPjdNBUUNP-100" style="edgeStyle=orthogonalEdgeStyle;rounded=0;orthogonalLoop=1;jettySize=auto;html=1;exitX=0.5;exitY=1;exitDx=0;exitDy=0;entryX=0.5;entryY=0;entryDx=0;entryDy=0;" parent="1" source="YGJ72AznllFPjdNBUUNP-98" target="YGJ72AznllFPjdNBUUNP-99" edge="1">
          <mxGeometry relative="1" as="geometry" />
        </mxCell>
        <mxCell id="YGJ72AznllFPjdNBUUNP-101" value="AXI" style="edgeLabel;html=1;align=center;verticalAlign=middle;resizable=0;points=[];" parent="YGJ72AznllFPjdNBUUNP-100" vertex="1" connectable="0">
          <mxGeometry x="-0.8279" relative="1" as="geometry">
            <mxPoint as="offset" />
          </mxGeometry>
        </mxCell>
        <mxCell id="YGJ72AznllFPjdNBUUNP-102" value="ACC" style="rounded=0;whiteSpace=wrap;html=1;fillColor=#fff2cc;strokeColor=#d6b656;" parent="1" vertex="1">
          <mxGeometry x="9.670000000000002" y="5122.222222222223" width="136.66666666666666" height="77.77777777777777" as="geometry" />
        </mxCell>
        <mxCell id="YGJ72AznllFPjdNBUUNP-106" value="ACC" style="rounded=0;whiteSpace=wrap;html=1;fillColor=#fff2cc;strokeColor=#d6b656;" parent="1" vertex="1">
          <mxGeometry x="215.67" y="5122.222222222223" width="136.66666666666666" height="77.77777777777777" as="geometry" />
        </mxCell>
        <mxCell id="YGJ72AznllFPjdNBUUNP-110" value="ACC" style="rounded=0;whiteSpace=wrap;html=1;fillColor=#fff2cc;strokeColor=#d6b656;" parent="1" vertex="1">
          <mxGeometry x="419.67" y="5122.222222222223" width="136.66666666666666" height="77.77777777777777" as="geometry" />
        </mxCell>
        <mxCell id="YGJ72AznllFPjdNBUUNP-113" value="" style="group" parent="1" vertex="1" connectable="0">
          <mxGeometry x="143" y="4700" width="280" height="200" as="geometry" />
        </mxCell>
        <mxCell id="YGJ72AznllFPjdNBUUNP-114" value="" style="rounded=1;whiteSpace=wrap;html=1;dashed=1;dashPattern=1 2;" parent="YGJ72AznllFPjdNBUUNP-113" vertex="1">
          <mxGeometry width="280" height="200" as="geometry" />
        </mxCell>
        <mxCell id="YGJ72AznllFPjdNBUUNP-115" value="" style="group" parent="YGJ72AznllFPjdNBUUNP-113" vertex="1" connectable="0">
          <mxGeometry x="36.34" y="30.001111111111186" width="205.01666666666665" height="155.55777777777803" as="geometry" />
        </mxCell>
        <mxCell id="YGJ72AznllFPjdNBUUNP-116" value="Ping" style="rounded=1;whiteSpace=wrap;html=1;fillColor=#d5e8d4;strokeColor=#82b366;" parent="YGJ72AznllFPjdNBUUNP-115" vertex="1">
          <mxGeometry width="68.33333333333333" height="77.77777777777777" as="geometry" />
        </mxCell>
        <mxCell id="YGJ72AznllFPjdNBUUNP-117" value="Pong" style="rounded=1;whiteSpace=wrap;html=1;fillColor=#dae8fc;strokeColor=#6c8ebf;" parent="YGJ72AznllFPjdNBUUNP-115" vertex="1">
          <mxGeometry x="0.0033333333333303017" y="77.7800000000002" width="68.33333333333333" height="77.77777777777777" as="geometry" />
        </mxCell>
        <mxCell id="YGJ72AznllFPjdNBUUNP-118" value="Ping" style="rounded=1;whiteSpace=wrap;html=1;fillColor=#d5e8d4;strokeColor=#82b366;" parent="YGJ72AznllFPjdNBUUNP-115" vertex="1">
          <mxGeometry x="68.33999999999997" width="68.33333333333333" height="77.77777777777777" as="geometry" />
        </mxCell>
        <mxCell id="YGJ72AznllFPjdNBUUNP-119" value="Pong" style="rounded=1;whiteSpace=wrap;html=1;fillColor=#dae8fc;strokeColor=#6c8ebf;" parent="YGJ72AznllFPjdNBUUNP-115" vertex="1">
          <mxGeometry x="68.34333333333336" y="77.7800000000002" width="68.33333333333333" height="77.77777777777777" as="geometry" />
        </mxCell>
        <mxCell id="YGJ72AznllFPjdNBUUNP-120" value="Ping" style="rounded=1;whiteSpace=wrap;html=1;fillColor=#d5e8d4;strokeColor=#82b366;" parent="YGJ72AznllFPjdNBUUNP-115" vertex="1">
          <mxGeometry x="136.68" y="4.547473508864641e-13" width="68.33333333333333" height="77.77777777777777" as="geometry" />
        </mxCell>
        <mxCell id="YGJ72AznllFPjdNBUUNP-121" value="Pong" style="rounded=1;whiteSpace=wrap;html=1;fillColor=#dae8fc;strokeColor=#6c8ebf;" parent="YGJ72AznllFPjdNBUUNP-115" vertex="1">
          <mxGeometry x="136.68333333333334" y="77.7800000000002" width="68.33333333333333" height="77.77777777777777" as="geometry" />
        </mxCell>
        <mxCell id="YGJ72AznllFPjdNBUUNP-126" style="edgeStyle=orthogonalEdgeStyle;rounded=0;orthogonalLoop=1;jettySize=auto;html=1;exitX=0.5;exitY=1;exitDx=0;exitDy=0;" parent="1" source="YGJ72AznllFPjdNBUUNP-124" target="YGJ72AznllFPjdNBUUNP-106" edge="1">
          <mxGeometry relative="1" as="geometry" />
        </mxCell>
        <mxCell id="YGJ72AznllFPjdNBUUNP-127" style="edgeStyle=orthogonalEdgeStyle;rounded=0;orthogonalLoop=1;jettySize=auto;html=1;exitX=0.5;exitY=1;exitDx=0;exitDy=0;" parent="1" source="YGJ72AznllFPjdNBUUNP-124" target="YGJ72AznllFPjdNBUUNP-102" edge="1">
          <mxGeometry relative="1" as="geometry" />
        </mxCell>
        <mxCell id="YGJ72AznllFPjdNBUUNP-128" style="edgeStyle=orthogonalEdgeStyle;rounded=0;orthogonalLoop=1;jettySize=auto;html=1;exitX=0.5;exitY=1;exitDx=0;exitDy=0;" parent="1" source="YGJ72AznllFPjdNBUUNP-124" target="YGJ72AznllFPjdNBUUNP-110" edge="1">
          <mxGeometry relative="1" as="geometry" />
        </mxCell>
        <mxCell id="YGJ72AznllFPjdNBUUNP-124" value="MCU" style="rounded=1;whiteSpace=wrap;html=1;fillColor=#f8cecc;strokeColor=#b85450;" parent="1" vertex="1">
          <mxGeometry x="215" y="4950" width="137" height="80" as="geometry" />
        </mxCell>
        <mxCell id="YGJ72AznllFPjdNBUUNP-125" style="edgeStyle=orthogonalEdgeStyle;rounded=0;orthogonalLoop=1;jettySize=auto;html=1;exitX=0.5;exitY=1;exitDx=0;exitDy=0;" parent="1" source="YGJ72AznllFPjdNBUUNP-114" target="YGJ72AznllFPjdNBUUNP-124" edge="1">
          <mxGeometry relative="1" as="geometry" />
        </mxCell>
        <mxCell id="WBLpp9h8ud4ae9By1l-Y-74" value="" style="group;fontSize=20;" parent="1" vertex="1" connectable="0">
          <mxGeometry x="140" y="5720" width="520" height="470.00000000000006" as="geometry" />
        </mxCell>
        <mxCell id="WBLpp9h8ud4ae9By1l-Y-62" value="0x34" style="text;html=1;strokeColor=none;fillColor=none;align=center;verticalAlign=middle;whiteSpace=wrap;rounded=0;fontSize=20;" parent="WBLpp9h8ud4ae9By1l-Y-74" vertex="1">
          <mxGeometry x="346.6666666666667" y="7.343750000000001" width="86.66666666666667" height="44.06250000000001" as="geometry" />
        </mxCell>
        <mxCell id="WBLpp9h8ud4ae9By1l-Y-63" value="0x38" style="text;html=1;strokeColor=none;fillColor=none;align=center;verticalAlign=middle;whiteSpace=wrap;rounded=0;fontSize=20;" parent="WBLpp9h8ud4ae9By1l-Y-74" vertex="1">
          <mxGeometry x="346.6666666666667" y="66.09375" width="86.66666666666667" height="44.06250000000001" as="geometry" />
        </mxCell>
        <mxCell id="WBLpp9h8ud4ae9By1l-Y-64" value="0x3C" style="text;html=1;strokeColor=none;fillColor=none;align=center;verticalAlign=middle;whiteSpace=wrap;rounded=0;fontSize=20;" parent="WBLpp9h8ud4ae9By1l-Y-74" vertex="1">
          <mxGeometry x="346.6666666666667" y="124.84375000000001" width="86.66666666666667" height="44.06250000000001" as="geometry" />
        </mxCell>
        <mxCell id="WBLpp9h8ud4ae9By1l-Y-65" value="0x20" style="text;html=1;strokeColor=none;fillColor=none;align=center;verticalAlign=middle;whiteSpace=wrap;rounded=0;fontSize=20;" parent="WBLpp9h8ud4ae9By1l-Y-74" vertex="1">
          <mxGeometry x="346.6666666666667" y="183.59375000000003" width="86.66666666666667" height="44.06250000000001" as="geometry" />
        </mxCell>
        <mxCell id="WBLpp9h8ud4ae9By1l-Y-66" value="0x24" style="text;html=1;strokeColor=none;fillColor=none;align=center;verticalAlign=middle;whiteSpace=wrap;rounded=0;fontSize=20;" parent="WBLpp9h8ud4ae9By1l-Y-74" vertex="1">
          <mxGeometry x="346.6666666666667" y="242.34375000000003" width="86.66666666666667" height="44.06250000000001" as="geometry" />
        </mxCell>
        <mxCell id="WBLpp9h8ud4ae9By1l-Y-67" value="0x28" style="text;html=1;strokeColor=none;fillColor=none;align=center;verticalAlign=middle;whiteSpace=wrap;rounded=0;fontSize=20;" parent="WBLpp9h8ud4ae9By1l-Y-74" vertex="1">
          <mxGeometry x="346.6666666666667" y="301.09375000000006" width="86.66666666666667" height="44.06250000000001" as="geometry" />
        </mxCell>
        <mxCell id="WBLpp9h8ud4ae9By1l-Y-68" value="0x2C" style="text;html=1;strokeColor=none;fillColor=none;align=center;verticalAlign=middle;whiteSpace=wrap;rounded=0;fontSize=20;" parent="WBLpp9h8ud4ae9By1l-Y-74" vertex="1">
          <mxGeometry x="346.6666666666667" y="359.84375000000006" width="86.66666666666667" height="44.06250000000001" as="geometry" />
        </mxCell>
        <mxCell id="WBLpp9h8ud4ae9By1l-Y-69" value="0x30" style="text;html=1;strokeColor=none;fillColor=none;align=center;verticalAlign=middle;whiteSpace=wrap;rounded=0;fontSize=20;" parent="WBLpp9h8ud4ae9By1l-Y-74" vertex="1">
          <mxGeometry x="346.6666666666667" y="418.59375000000006" width="86.66666666666667" height="44.06250000000001" as="geometry" />
        </mxCell>
        <mxCell id="WBLpp9h8ud4ae9By1l-Y-72" value="&lt;font color=&quot;#ff0000&quot; style=&quot;font-size: 20px;&quot;&gt;AxADDR&lt;/font&gt;" style="text;html=1;strokeColor=none;fillColor=none;align=center;verticalAlign=middle;whiteSpace=wrap;rounded=0;fontSize=20;" parent="WBLpp9h8ud4ae9By1l-Y-74" vertex="1">
          <mxGeometry x="433.3333333333333" y="7.343750000000001" width="86.66666666666667" height="44.06250000000001" as="geometry" />
        </mxCell>
        <mxCell id="WBLpp9h8ud4ae9By1l-Y-73" value="&lt;font color=&quot;#ff0000&quot; style=&quot;font-size: 20px;&quot;&gt;lower_bound&lt;/font&gt;" style="text;html=1;strokeColor=none;fillColor=none;align=center;verticalAlign=middle;whiteSpace=wrap;rounded=0;fontSize=20;" parent="WBLpp9h8ud4ae9By1l-Y-74" vertex="1">
          <mxGeometry x="440.00222222222226" y="183.59375000000003" width="86.66666666666667" height="44.06250000000001" as="geometry" />
        </mxCell>
        <mxCell id="WBLpp9h8ud4ae9By1l-Y-76" value="" style="group" parent="WBLpp9h8ud4ae9By1l-Y-74" vertex="1" connectable="0">
          <mxGeometry x="-20" width="366.67" height="470" as="geometry" />
        </mxCell>
        <mxCell id="WBLpp9h8ud4ae9By1l-Y-1" value="1" style="rounded=1;whiteSpace=wrap;html=1;fillColor=#dae8fc;strokeColor=#6c8ebf;fontSize=20;" parent="WBLpp9h8ud4ae9By1l-Y-76" vertex="1">
          <mxGeometry x="61.11166666666668" width="61.11166666666668" height="58.75" as="geometry" />
        </mxCell>
        <mxCell id="WBLpp9h8ud4ae9By1l-Y-2" value="0" style="rounded=1;whiteSpace=wrap;html=1;fillColor=#dae8fc;strokeColor=#6c8ebf;fontSize=20;" parent="WBLpp9h8ud4ae9By1l-Y-76" vertex="1">
          <mxGeometry x="122.22333333333333" width="61.11166666666668" height="58.75" as="geometry" />
        </mxCell>
        <mxCell id="WBLpp9h8ud4ae9By1l-Y-3" value="1" style="rounded=1;whiteSpace=wrap;html=1;fillColor=#dae8fc;strokeColor=#6c8ebf;fontSize=20;" parent="WBLpp9h8ud4ae9By1l-Y-76" vertex="1">
          <mxGeometry x="183.33500000000004" width="61.11166666666668" height="58.75" as="geometry" />
        </mxCell>
        <mxCell id="WBLpp9h8ud4ae9By1l-Y-4" value="0" style="rounded=1;whiteSpace=wrap;html=1;fillColor=#dae8fc;strokeColor=#6c8ebf;fontSize=20;" parent="WBLpp9h8ud4ae9By1l-Y-76" vertex="1">
          <mxGeometry x="244.4466666666667" width="61.11166666666668" height="58.75" as="geometry" />
        </mxCell>
        <mxCell id="WBLpp9h8ud4ae9By1l-Y-5" value="0" style="rounded=1;whiteSpace=wrap;html=1;fillColor=#dae8fc;strokeColor=#6c8ebf;fontSize=20;" parent="WBLpp9h8ud4ae9By1l-Y-76" vertex="1">
          <mxGeometry x="305.5583333333334" width="61.11166666666668" height="58.75" as="geometry" />
        </mxCell>
        <mxCell id="WBLpp9h8ud4ae9By1l-Y-7" value="1" style="rounded=1;whiteSpace=wrap;html=1;fillColor=#dae8fc;strokeColor=#6c8ebf;fontSize=20;" parent="WBLpp9h8ud4ae9By1l-Y-76" vertex="1">
          <mxGeometry x="61.11166666666668" y="58.75" width="61.11166666666668" height="58.75" as="geometry" />
        </mxCell>
        <mxCell id="WBLpp9h8ud4ae9By1l-Y-8" value="1" style="rounded=1;whiteSpace=wrap;html=1;fillColor=#dae8fc;strokeColor=#6c8ebf;fontSize=20;" parent="WBLpp9h8ud4ae9By1l-Y-76" vertex="1">
          <mxGeometry x="122.22333333333333" y="58.75" width="61.11166666666668" height="58.75" as="geometry" />
        </mxCell>
        <mxCell id="WBLpp9h8ud4ae9By1l-Y-9" value="0" style="rounded=1;whiteSpace=wrap;html=1;fillColor=#dae8fc;strokeColor=#6c8ebf;fontSize=20;" parent="WBLpp9h8ud4ae9By1l-Y-76" vertex="1">
          <mxGeometry x="183.33500000000004" y="58.75" width="61.11166666666668" height="58.75" as="geometry" />
        </mxCell>
        <mxCell id="WBLpp9h8ud4ae9By1l-Y-10" value="0" style="rounded=1;whiteSpace=wrap;html=1;fillColor=#dae8fc;strokeColor=#6c8ebf;fontSize=20;" parent="WBLpp9h8ud4ae9By1l-Y-76" vertex="1">
          <mxGeometry x="244.4466666666667" y="58.75" width="61.11166666666668" height="58.75" as="geometry" />
        </mxCell>
        <mxCell id="WBLpp9h8ud4ae9By1l-Y-11" value="0" style="rounded=1;whiteSpace=wrap;html=1;fillColor=#dae8fc;strokeColor=#6c8ebf;fontSize=20;" parent="WBLpp9h8ud4ae9By1l-Y-76" vertex="1">
          <mxGeometry x="305.5583333333334" y="58.75" width="61.11166666666668" height="58.75" as="geometry" />
        </mxCell>
        <mxCell id="WBLpp9h8ud4ae9By1l-Y-12" value="1" style="rounded=1;whiteSpace=wrap;html=1;fillColor=#dae8fc;strokeColor=#6c8ebf;fontSize=20;" parent="WBLpp9h8ud4ae9By1l-Y-76" vertex="1">
          <mxGeometry x="61.11166666666668" y="117.5" width="61.11166666666668" height="58.75" as="geometry" />
        </mxCell>
        <mxCell id="WBLpp9h8ud4ae9By1l-Y-13" value="1" style="rounded=1;whiteSpace=wrap;html=1;fillColor=#dae8fc;strokeColor=#6c8ebf;fontSize=20;" parent="WBLpp9h8ud4ae9By1l-Y-76" vertex="1">
          <mxGeometry x="122.22333333333333" y="117.5" width="61.11166666666668" height="58.75" as="geometry" />
        </mxCell>
        <mxCell id="WBLpp9h8ud4ae9By1l-Y-14" value="1" style="rounded=1;whiteSpace=wrap;html=1;fillColor=#dae8fc;strokeColor=#6c8ebf;fontSize=20;" parent="WBLpp9h8ud4ae9By1l-Y-76" vertex="1">
          <mxGeometry x="183.33500000000004" y="117.5" width="61.11166666666668" height="58.75" as="geometry" />
        </mxCell>
        <mxCell id="WBLpp9h8ud4ae9By1l-Y-15" value="0" style="rounded=1;whiteSpace=wrap;html=1;fillColor=#dae8fc;strokeColor=#6c8ebf;fontSize=20;" parent="WBLpp9h8ud4ae9By1l-Y-76" vertex="1">
          <mxGeometry x="244.4466666666667" y="117.5" width="61.11166666666668" height="58.75" as="geometry" />
        </mxCell>
        <mxCell id="WBLpp9h8ud4ae9By1l-Y-16" value="0" style="rounded=1;whiteSpace=wrap;html=1;fillColor=#dae8fc;strokeColor=#6c8ebf;fontSize=20;" parent="WBLpp9h8ud4ae9By1l-Y-76" vertex="1">
          <mxGeometry x="305.5583333333334" y="117.5" width="61.11166666666668" height="58.75" as="geometry" />
        </mxCell>
        <mxCell id="WBLpp9h8ud4ae9By1l-Y-17" value="0" style="rounded=1;whiteSpace=wrap;html=1;fillColor=#dae8fc;strokeColor=#6c8ebf;fontSize=20;" parent="WBLpp9h8ud4ae9By1l-Y-76" vertex="1">
          <mxGeometry x="61.11166666666668" y="176.25" width="61.11166666666668" height="58.75" as="geometry" />
        </mxCell>
        <mxCell id="WBLpp9h8ud4ae9By1l-Y-18" value="0" style="rounded=1;whiteSpace=wrap;html=1;fillColor=#dae8fc;strokeColor=#6c8ebf;fontSize=20;" parent="WBLpp9h8ud4ae9By1l-Y-76" vertex="1">
          <mxGeometry x="122.22333333333333" y="176.25" width="61.11166666666668" height="58.75" as="geometry" />
        </mxCell>
        <mxCell id="WBLpp9h8ud4ae9By1l-Y-19" value="0" style="rounded=1;whiteSpace=wrap;html=1;fillColor=#dae8fc;strokeColor=#6c8ebf;fontSize=20;" parent="WBLpp9h8ud4ae9By1l-Y-76" vertex="1">
          <mxGeometry x="183.33500000000004" y="176.25" width="61.11166666666668" height="58.75" as="geometry" />
        </mxCell>
        <mxCell id="WBLpp9h8ud4ae9By1l-Y-20" value="0" style="rounded=1;whiteSpace=wrap;html=1;fillColor=#dae8fc;strokeColor=#6c8ebf;fontSize=20;" parent="WBLpp9h8ud4ae9By1l-Y-76" vertex="1">
          <mxGeometry x="244.4466666666667" y="176.25" width="61.11166666666668" height="58.75" as="geometry" />
        </mxCell>
        <mxCell id="WBLpp9h8ud4ae9By1l-Y-21" value="0" style="rounded=1;whiteSpace=wrap;html=1;fillColor=#dae8fc;strokeColor=#6c8ebf;fontSize=20;" parent="WBLpp9h8ud4ae9By1l-Y-76" vertex="1">
          <mxGeometry x="305.5583333333334" y="176.25" width="61.11166666666668" height="58.75" as="geometry" />
        </mxCell>
        <mxCell id="WBLpp9h8ud4ae9By1l-Y-22" value="0" style="rounded=1;whiteSpace=wrap;html=1;fillColor=#dae8fc;strokeColor=#6c8ebf;fontSize=20;" parent="WBLpp9h8ud4ae9By1l-Y-76" vertex="1">
          <mxGeometry x="61.11166666666668" y="235" width="61.11166666666668" height="58.75" as="geometry" />
        </mxCell>
        <mxCell id="WBLpp9h8ud4ae9By1l-Y-23" value="0" style="rounded=1;whiteSpace=wrap;html=1;fillColor=#dae8fc;strokeColor=#6c8ebf;fontSize=20;" parent="WBLpp9h8ud4ae9By1l-Y-76" vertex="1">
          <mxGeometry x="122.22333333333333" y="235" width="61.11166666666668" height="58.75" as="geometry" />
        </mxCell>
        <mxCell id="WBLpp9h8ud4ae9By1l-Y-27" value="0" style="rounded=1;whiteSpace=wrap;html=1;fillColor=#dae8fc;strokeColor=#6c8ebf;fontSize=20;" parent="WBLpp9h8ud4ae9By1l-Y-76" vertex="1">
          <mxGeometry x="61.11166666666668" y="293.74999999999994" width="61.11166666666668" height="58.75" as="geometry" />
        </mxCell>
        <mxCell id="WBLpp9h8ud4ae9By1l-Y-28" value="1" style="rounded=1;whiteSpace=wrap;html=1;fillColor=#dae8fc;strokeColor=#6c8ebf;fontSize=20;" parent="WBLpp9h8ud4ae9By1l-Y-76" vertex="1">
          <mxGeometry x="122.22333333333333" y="293.74999999999994" width="61.11166666666668" height="58.75" as="geometry" />
        </mxCell>
        <mxCell id="WBLpp9h8ud4ae9By1l-Y-32" value="0" style="rounded=1;whiteSpace=wrap;html=1;fillColor=#dae8fc;strokeColor=#6c8ebf;fontSize=20;" parent="WBLpp9h8ud4ae9By1l-Y-76" vertex="1">
          <mxGeometry x="61.11166666666668" y="352.5" width="61.11166666666668" height="58.75" as="geometry" />
        </mxCell>
        <mxCell id="WBLpp9h8ud4ae9By1l-Y-33" value="1" style="rounded=1;whiteSpace=wrap;html=1;fillColor=#dae8fc;strokeColor=#6c8ebf;fontSize=20;" parent="WBLpp9h8ud4ae9By1l-Y-76" vertex="1">
          <mxGeometry x="122.22333333333333" y="352.5" width="61.11166666666668" height="58.75" as="geometry" />
        </mxCell>
        <mxCell id="WBLpp9h8ud4ae9By1l-Y-37" value="1" style="rounded=1;whiteSpace=wrap;html=1;fillColor=#dae8fc;strokeColor=#6c8ebf;fontSize=20;" parent="WBLpp9h8ud4ae9By1l-Y-76" vertex="1">
          <mxGeometry x="61.11166666666668" y="411.25" width="61.11166666666668" height="58.75" as="geometry" />
        </mxCell>
        <mxCell id="WBLpp9h8ud4ae9By1l-Y-38" value="0" style="rounded=1;whiteSpace=wrap;html=1;fillColor=#dae8fc;strokeColor=#6c8ebf;fontSize=20;" parent="WBLpp9h8ud4ae9By1l-Y-76" vertex="1">
          <mxGeometry x="122.22333333333333" y="411.25" width="61.11166666666668" height="58.75" as="geometry" />
        </mxCell>
        <mxCell id="WBLpp9h8ud4ae9By1l-Y-42" value="1" style="rounded=1;whiteSpace=wrap;html=1;fillColor=#f8cecc;strokeColor=#b85450;fontSize=20;" parent="WBLpp9h8ud4ae9By1l-Y-76" vertex="1">
          <mxGeometry width="61.11166666666668" height="58.75" as="geometry" />
        </mxCell>
        <mxCell id="WBLpp9h8ud4ae9By1l-Y-43" value="1" style="rounded=1;whiteSpace=wrap;html=1;fillColor=#f8cecc;strokeColor=#b85450;fontSize=20;" parent="WBLpp9h8ud4ae9By1l-Y-76" vertex="1">
          <mxGeometry y="58.75" width="61.11166666666668" height="58.75" as="geometry" />
        </mxCell>
        <mxCell id="WBLpp9h8ud4ae9By1l-Y-44" value="1" style="rounded=1;whiteSpace=wrap;html=1;fillColor=#f8cecc;strokeColor=#b85450;fontSize=20;" parent="WBLpp9h8ud4ae9By1l-Y-76" vertex="1">
          <mxGeometry y="117.5" width="61.11166666666668" height="58.75" as="geometry" />
        </mxCell>
        <mxCell id="WBLpp9h8ud4ae9By1l-Y-45" value="1" style="rounded=1;whiteSpace=wrap;html=1;fillColor=#f8cecc;strokeColor=#b85450;fontSize=20;" parent="WBLpp9h8ud4ae9By1l-Y-76" vertex="1">
          <mxGeometry y="176.25" width="61.11166666666668" height="58.75" as="geometry" />
        </mxCell>
        <mxCell id="WBLpp9h8ud4ae9By1l-Y-46" value="1" style="rounded=1;whiteSpace=wrap;html=1;fillColor=#f8cecc;strokeColor=#b85450;fontSize=20;" parent="WBLpp9h8ud4ae9By1l-Y-76" vertex="1">
          <mxGeometry y="235" width="61.11166666666668" height="58.75" as="geometry" />
        </mxCell>
        <mxCell id="WBLpp9h8ud4ae9By1l-Y-47" value="1" style="rounded=1;whiteSpace=wrap;html=1;fillColor=#f8cecc;strokeColor=#b85450;fontSize=20;" parent="WBLpp9h8ud4ae9By1l-Y-76" vertex="1">
          <mxGeometry y="293.74999999999994" width="61.11166666666668" height="58.75" as="geometry" />
        </mxCell>
        <mxCell id="WBLpp9h8ud4ae9By1l-Y-48" value="1" style="rounded=1;whiteSpace=wrap;html=1;fillColor=#f8cecc;strokeColor=#b85450;fontSize=20;" parent="WBLpp9h8ud4ae9By1l-Y-76" vertex="1">
          <mxGeometry y="352.5" width="61.11166666666668" height="58.75" as="geometry" />
        </mxCell>
        <mxCell id="WBLpp9h8ud4ae9By1l-Y-49" value="1" style="rounded=1;whiteSpace=wrap;html=1;fillColor=#f8cecc;strokeColor=#b85450;fontSize=20;" parent="WBLpp9h8ud4ae9By1l-Y-76" vertex="1">
          <mxGeometry y="411.25" width="61.11166666666668" height="58.75" as="geometry" />
        </mxCell>
        <mxCell id="WBLpp9h8ud4ae9By1l-Y-50" value="1" style="rounded=1;whiteSpace=wrap;html=1;fillColor=#dae8fc;strokeColor=#6c8ebf;fontSize=20;" parent="WBLpp9h8ud4ae9By1l-Y-76" vertex="1">
          <mxGeometry x="183.33500000000004" y="235" width="61.11166666666668" height="58.75" as="geometry" />
        </mxCell>
        <mxCell id="WBLpp9h8ud4ae9By1l-Y-51" value="0" style="rounded=1;whiteSpace=wrap;html=1;fillColor=#dae8fc;strokeColor=#6c8ebf;fontSize=20;" parent="WBLpp9h8ud4ae9By1l-Y-76" vertex="1">
          <mxGeometry x="244.4466666666667" y="235" width="61.11166666666668" height="58.75" as="geometry" />
        </mxCell>
        <mxCell id="WBLpp9h8ud4ae9By1l-Y-52" value="0" style="rounded=1;whiteSpace=wrap;html=1;fillColor=#dae8fc;strokeColor=#6c8ebf;fontSize=20;" parent="WBLpp9h8ud4ae9By1l-Y-76" vertex="1">
          <mxGeometry x="305.5583333333334" y="235" width="61.11166666666668" height="58.75" as="geometry" />
        </mxCell>
        <mxCell id="WBLpp9h8ud4ae9By1l-Y-53" value="0" style="rounded=1;whiteSpace=wrap;html=1;fillColor=#dae8fc;strokeColor=#6c8ebf;fontSize=20;" parent="WBLpp9h8ud4ae9By1l-Y-76" vertex="1">
          <mxGeometry x="183.33500000000004" y="293.74999999999994" width="61.11166666666668" height="58.75" as="geometry" />
        </mxCell>
        <mxCell id="WBLpp9h8ud4ae9By1l-Y-54" value="0" style="rounded=1;whiteSpace=wrap;html=1;fillColor=#dae8fc;strokeColor=#6c8ebf;fontSize=20;" parent="WBLpp9h8ud4ae9By1l-Y-76" vertex="1">
          <mxGeometry x="244.4466666666667" y="293.74999999999994" width="61.11166666666668" height="58.75" as="geometry" />
        </mxCell>
        <mxCell id="WBLpp9h8ud4ae9By1l-Y-55" value="0" style="rounded=1;whiteSpace=wrap;html=1;fillColor=#dae8fc;strokeColor=#6c8ebf;fontSize=20;" parent="WBLpp9h8ud4ae9By1l-Y-76" vertex="1">
          <mxGeometry x="305.5583333333334" y="293.74999999999994" width="61.11166666666668" height="58.75" as="geometry" />
        </mxCell>
        <mxCell id="WBLpp9h8ud4ae9By1l-Y-56" value="1" style="rounded=1;whiteSpace=wrap;html=1;fillColor=#dae8fc;strokeColor=#6c8ebf;fontSize=20;" parent="WBLpp9h8ud4ae9By1l-Y-76" vertex="1">
          <mxGeometry x="183.33500000000004" y="352.5" width="61.11166666666668" height="58.75" as="geometry" />
        </mxCell>
        <mxCell id="WBLpp9h8ud4ae9By1l-Y-57" value="0" style="rounded=1;whiteSpace=wrap;html=1;fillColor=#dae8fc;strokeColor=#6c8ebf;fontSize=20;" parent="WBLpp9h8ud4ae9By1l-Y-76" vertex="1">
          <mxGeometry x="244.4466666666667" y="352.5" width="61.11166666666668" height="58.75" as="geometry" />
        </mxCell>
        <mxCell id="WBLpp9h8ud4ae9By1l-Y-58" value="0" style="rounded=1;whiteSpace=wrap;html=1;fillColor=#dae8fc;strokeColor=#6c8ebf;fontSize=20;" parent="WBLpp9h8ud4ae9By1l-Y-76" vertex="1">
          <mxGeometry x="305.5583333333334" y="352.5" width="61.11166666666668" height="58.75" as="geometry" />
        </mxCell>
        <mxCell id="WBLpp9h8ud4ae9By1l-Y-59" value="0" style="rounded=1;whiteSpace=wrap;html=1;fillColor=#dae8fc;strokeColor=#6c8ebf;fontSize=20;" parent="WBLpp9h8ud4ae9By1l-Y-76" vertex="1">
          <mxGeometry x="183.33500000000004" y="411.25" width="61.11166666666668" height="58.75" as="geometry" />
        </mxCell>
        <mxCell id="WBLpp9h8ud4ae9By1l-Y-60" value="0" style="rounded=1;whiteSpace=wrap;html=1;fillColor=#dae8fc;strokeColor=#6c8ebf;fontSize=20;" parent="WBLpp9h8ud4ae9By1l-Y-76" vertex="1">
          <mxGeometry x="244.4466666666667" y="411.25" width="61.11166666666668" height="58.75" as="geometry" />
        </mxCell>
        <mxCell id="WBLpp9h8ud4ae9By1l-Y-61" value="0" style="rounded=1;whiteSpace=wrap;html=1;fillColor=#dae8fc;strokeColor=#6c8ebf;fontSize=20;" parent="WBLpp9h8ud4ae9By1l-Y-76" vertex="1">
          <mxGeometry x="305.5583333333334" y="411.25" width="61.11166666666668" height="58.75" as="geometry" />
        </mxCell>
        <mxCell id="WBLpp9h8ud4ae9By1l-Y-75" value="&lt;font style=&quot;font-size: 20px;&quot;&gt;SIZE = 4B&lt;br&gt;LEN = 8&lt;/font&gt;" style="text;html=1;strokeColor=none;fillColor=none;align=center;verticalAlign=middle;whiteSpace=wrap;rounded=0;" parent="1" vertex="1">
          <mxGeometry x="234.5" y="5670" width="171" height="30" as="geometry" />
        </mxCell>
        <mxCell id="WBLpp9h8ud4ae9By1l-Y-77" value="&lt;font color=&quot;#ff0000&quot; style=&quot;font-size: 20px;&quot;&gt;all possible&lt;br&gt;address&lt;br&gt;&lt;/font&gt;" style="text;html=1;strokeColor=none;fillColor=none;align=center;verticalAlign=middle;whiteSpace=wrap;rounded=0;fontSize=20;" parent="1" vertex="1">
          <mxGeometry x="487.33" y="6200" width="85.34" height="44.06" as="geometry" />
        </mxCell>
        <mxCell id="BbBG9lAdSmbuCI8SlXn7-15" style="edgeStyle=orthogonalEdgeStyle;rounded=0;orthogonalLoop=1;jettySize=auto;html=1;exitX=0.5;exitY=1;exitDx=0;exitDy=0;entryX=0.5;entryY=0;entryDx=0;entryDy=0;" edge="1" parent="1" source="BbBG9lAdSmbuCI8SlXn7-1" target="BbBG9lAdSmbuCI8SlXn7-2">
          <mxGeometry relative="1" as="geometry" />
        </mxCell>
        <mxCell id="BbBG9lAdSmbuCI8SlXn7-18" value="target ACC" style="edgeLabel;html=1;align=center;verticalAlign=middle;resizable=0;points=[];" vertex="1" connectable="0" parent="BbBG9lAdSmbuCI8SlXn7-15">
          <mxGeometry x="-0.019" relative="1" as="geometry">
            <mxPoint as="offset" />
          </mxGeometry>
        </mxCell>
        <mxCell id="BbBG9lAdSmbuCI8SlXn7-16" style="edgeStyle=orthogonalEdgeStyle;rounded=0;orthogonalLoop=1;jettySize=auto;html=1;exitX=0.75;exitY=1;exitDx=0;exitDy=0;entryX=0.75;entryY=0;entryDx=0;entryDy=0;" edge="1" parent="1" source="BbBG9lAdSmbuCI8SlXn7-1" target="BbBG9lAdSmbuCI8SlXn7-2">
          <mxGeometry relative="1" as="geometry" />
        </mxCell>
        <mxCell id="BbBG9lAdSmbuCI8SlXn7-19" value="length" style="edgeLabel;html=1;align=center;verticalAlign=middle;resizable=0;points=[];" vertex="1" connectable="0" parent="BbBG9lAdSmbuCI8SlXn7-16">
          <mxGeometry x="-0.0075" relative="1" as="geometry">
            <mxPoint as="offset" />
          </mxGeometry>
        </mxCell>
        <mxCell id="BbBG9lAdSmbuCI8SlXn7-17" value="src ACC" style="edgeStyle=orthogonalEdgeStyle;rounded=0;orthogonalLoop=1;jettySize=auto;html=1;exitX=0.25;exitY=1;exitDx=0;exitDy=0;entryX=0.25;entryY=0;entryDx=0;entryDy=0;" edge="1" parent="1" source="BbBG9lAdSmbuCI8SlXn7-1" target="BbBG9lAdSmbuCI8SlXn7-2">
          <mxGeometry relative="1" as="geometry">
            <Array as="points">
              <mxPoint x="240" y="6980" />
              <mxPoint x="240" y="6980" />
            </Array>
          </mxGeometry>
        </mxCell>
        <mxCell id="BbBG9lAdSmbuCI8SlXn7-1" value="&lt;i&gt;Config&lt;/i&gt; FIFO" style="rounded=1;whiteSpace=wrap;html=1;fillColor=#fff2cc;strokeColor=#d6b656;" vertex="1" parent="1">
          <mxGeometry x="160" y="6860" width="320" height="80" as="geometry" />
        </mxCell>
        <mxCell id="BbBG9lAdSmbuCI8SlXn7-2" value="&lt;i&gt;Data&lt;/i&gt; FIFO" style="rounded=1;whiteSpace=wrap;html=1;fillColor=#f8cecc;strokeColor=#b85450;" vertex="1" parent="1">
          <mxGeometry x="160" y="7000" width="320" height="80" as="geometry" />
        </mxCell>
        <mxCell id="BbBG9lAdSmbuCI8SlXn7-3" value="ACC 0" style="rounded=1;whiteSpace=wrap;html=1;fillColor=#e1d5e7;strokeColor=#9673a6;" vertex="1" parent="1">
          <mxGeometry x="160" y="7160" width="80" height="40" as="geometry" />
        </mxCell>
        <mxCell id="BbBG9lAdSmbuCI8SlXn7-4" value="ACC 1" style="rounded=1;whiteSpace=wrap;html=1;fillColor=#e1d5e7;strokeColor=#9673a6;" vertex="1" parent="1">
          <mxGeometry x="280" y="7160" width="80" height="40" as="geometry" />
        </mxCell>
        <mxCell id="BbBG9lAdSmbuCI8SlXn7-5" value="&lt;span style=&quot;font-weight: normal;&quot;&gt;ACC n&lt;/span&gt;" style="rounded=1;whiteSpace=wrap;html=1;fontStyle=1;fillColor=#e1d5e7;strokeColor=#9673a6;" vertex="1" parent="1">
          <mxGeometry x="400" y="7160" width="80" height="40" as="geometry" />
        </mxCell>
        <mxCell id="BbBG9lAdSmbuCI8SlXn7-8" value="" style="shape=flexArrow;endArrow=classic;startArrow=classic;html=1;rounded=0;fillColor=#f5f5f5;strokeColor=#666666;" edge="1" parent="1">
          <mxGeometry width="100" height="100" relative="1" as="geometry">
            <mxPoint x="319.76" y="7160" as="sourcePoint" />
            <mxPoint x="319.76" y="7080" as="targetPoint" />
          </mxGeometry>
        </mxCell>
        <mxCell id="BbBG9lAdSmbuCI8SlXn7-9" value="" style="shape=flexArrow;endArrow=classic;startArrow=classic;html=1;rounded=0;fillColor=#f5f5f5;strokeColor=#666666;" edge="1" parent="1">
          <mxGeometry width="100" height="100" relative="1" as="geometry">
            <mxPoint x="200" y="7160" as="sourcePoint" />
            <mxPoint x="200" y="7080" as="targetPoint" />
          </mxGeometry>
        </mxCell>
        <mxCell id="BbBG9lAdSmbuCI8SlXn7-10" value="" style="shape=flexArrow;endArrow=classic;startArrow=classic;html=1;rounded=0;fillColor=#f5f5f5;strokeColor=#666666;" edge="1" parent="1">
          <mxGeometry width="100" height="100" relative="1" as="geometry">
            <mxPoint x="439.52" y="7160" as="sourcePoint" />
            <mxPoint x="439.52" y="7080" as="targetPoint" />
          </mxGeometry>
        </mxCell>
        <mxCell id="BbBG9lAdSmbuCI8SlXn7-11" value="..." style="text;html=1;strokeColor=none;fillColor=none;align=center;verticalAlign=middle;whiteSpace=wrap;rounded=0;" vertex="1" parent="1">
          <mxGeometry x="352" y="7165" width="60" height="30" as="geometry" />
        </mxCell>
        <mxCell id="BbBG9lAdSmbuCI8SlXn7-21" style="edgeStyle=orthogonalEdgeStyle;rounded=0;orthogonalLoop=1;jettySize=auto;html=1;exitX=0.5;exitY=1;exitDx=0;exitDy=0;entryX=0.5;entryY=0;entryDx=0;entryDy=0;" edge="1" parent="1" source="BbBG9lAdSmbuCI8SlXn7-20" target="BbBG9lAdSmbuCI8SlXn7-1">
          <mxGeometry relative="1" as="geometry" />
        </mxCell>
        <mxCell id="BbBG9lAdSmbuCI8SlXn7-22" value="config data" style="edgeLabel;html=1;align=center;verticalAlign=middle;resizable=0;points=[];" vertex="1" connectable="0" parent="BbBG9lAdSmbuCI8SlXn7-21">
          <mxGeometry x="0.1924" y="1" relative="1" as="geometry">
            <mxPoint x="-1" y="-24" as="offset" />
          </mxGeometry>
        </mxCell>
        <mxCell id="BbBG9lAdSmbuCI8SlXn7-20" value="MCU" style="rounded=1;whiteSpace=wrap;html=1;fillColor=#d5e8d4;strokeColor=#82b366;" vertex="1" parent="1">
          <mxGeometry x="260" y="6730" width="120" height="40" as="geometry" />
        </mxCell>
        <mxCell id="BbBG9lAdSmbuCI8SlXn7-24" value="DMA" style="text;html=1;strokeColor=none;fillColor=none;align=center;verticalAlign=middle;whiteSpace=wrap;rounded=0;" vertex="1" parent="1">
          <mxGeometry x="110" y="6830" width="60" height="30" as="geometry" />
        </mxCell>
        <mxCell id="BbBG9lAdSmbuCI8SlXn7-25" value="AXI" style="text;html=1;strokeColor=none;fillColor=none;align=center;verticalAlign=middle;whiteSpace=wrap;rounded=0;" vertex="1" parent="1">
          <mxGeometry x="194.5" y="7120" width="40" height="30" as="geometry" />
        </mxCell>
        <mxCell id="BbBG9lAdSmbuCI8SlXn7-26" value="Q: does ACC has &lt;u&gt;&lt;b&gt;shared bus&lt;/b&gt;&lt;/u&gt; structure to allow data transfer between ACC in T502?" style="text;html=1;strokeColor=none;fillColor=none;align=left;verticalAlign=middle;whiteSpace=wrap;rounded=0;" vertex="1" parent="1">
          <mxGeometry x="541" y="7025" width="169" height="30" as="geometry" />
        </mxCell>
      </root>
    </mxGraphModel>
  </diagram>
</mxfile>
